<?xml version="1.0" encoding="UTF-8" standalone="no"?><!DOCTYPE svg PUBLIC "-//W3C//DTD SVG 1.1//EN" "http://www.w3.org/Graphics/SVG/1.1/DTD/svg11.dtd"><svg width="100%" height="100%" viewBox="0 0 160 240" version="1.1" xmlns="http://www.w3.org/2000/svg" xmlns:xlink="http://www.w3.org/1999/xlink" xml:space="preserve" xmlns:serif="http://www.serif.com/" style="fill-rule:evenodd;clip-rule:evenodd;stroke-linejoin:round;stroke-miterlimit:1.41421;"><g id="Broom"><path id="Shaft" d="M159.411,7.109c0.785,-1.359 0.318,-3.1 -1.041,-3.884l-4.925,-2.844c-1.359,-0.785 -3.1,-0.318 -3.884,1.041l-84.359,146.114c-0.785,1.359 -0.319,3.099 1.041,3.884l4.925,2.843c1.359,0.785 3.099,0.319 3.884,-1.04l84.359,-146.114Z" style="fill:#a46558;"/><path id="Brush-base" serif:id="Brush base" d="M31.376,153.693l0.072,-0.125c6.213,-10.762 23.638,-12.352 38.886,-3.548c15.249,8.804 22.584,24.689 16.371,35.451l-0.073,0.124l0.032,0.018l-11.535,19.978l-55.318,-31.938l11.534,-19.978l0.031,0.018Z" style="fill:#a46558;"/><g id="Brush"><path d="M75.087,205.665l-55.319,-31.938c0,0 -17.067,29.56 -19.485,33.748c-0.156,0.271 -0.063,0.618 0.208,0.774c5.15,2.974 49.187,28.398 54.337,31.372c0.271,0.156 0.618,0.063 0.774,-0.208c2.418,-4.187 19.485,-33.748 19.485,-33.748Z" style="fill:#cab54f;"/><path d="M27.28,178.949l-0.443,-0.256l-19.376,33.56l0.443,0.255l19.376,-33.559Z" style="fill:#6d5b08;"/><path d="M37.272,184.718l-0.443,-0.256l-19.376,33.559l0.443,0.256l19.376,-33.559Z" style="fill:#6d5b08;"/><path d="M47.264,190.486l-0.443,-0.255l-19.376,33.559l0.443,0.256l19.376,-33.56Z" style="fill:#6d5b08;"/><path d="M57.255,196.255l-0.443,-0.255l-19.375,33.559l0.443,0.256l19.375,-33.56Z" style="fill:#6d5b08;"/><path d="M67.247,202.024l-0.443,-0.256l-19.375,33.56l0.443,0.255l19.375,-33.559Z" style="fill:#6d5b08;"/></g><path id="Brush-collar" serif:id="Brush collar" d="M79.715,200.416c0.715,-1.239 0.29,-2.824 -0.948,-3.539l-53.228,-30.731c-1.238,-0.715 -2.824,-0.29 -3.539,0.948l-2.591,4.487c-0.715,1.238 -0.29,2.824 0.949,3.539l53.227,30.731c1.238,0.715 2.824,0.29 3.539,-0.948l2.591,-4.487Z" style="fill:#ae982f;"/></g></svg>