<?xml version="1.0" encoding="UTF-8" standalone="no"?><!DOCTYPE svg PUBLIC "-//W3C//DTD SVG 1.1//EN" "http://www.w3.org/Graphics/SVG/1.1/DTD/svg11.dtd"><svg width="100%" height="100%" viewBox="0 0 234 241" version="1.1" xmlns="http://www.w3.org/2000/svg" xmlns:xlink="http://www.w3.org/1999/xlink" xml:space="preserve" xmlns:serif="http://www.serif.com/" style="fill-rule:evenodd;clip-rule:evenodd;stroke-linejoin:round;stroke-miterlimit:1.41421;"><g id="Dishwasher"><path d="M233.632,8.504c0,-4.697 -3.807,-8.504 -8.504,-8.504c-36.548,0 -180.076,0 -216.624,0c-4.697,0 -8.504,3.807 -8.504,8.504c0,35.052 0,168.129 0,203.181c0,4.696 3.807,8.504 8.504,8.504c36.548,0 180.076,0 216.624,0c4.697,0 8.504,-3.808 8.504,-8.504c0,-35.052 0,-168.129 0,-203.181Z" style="fill:#c3c3c3;"/><path d="M222.406,220.291l-211.18,0c0,0 0,12.16 0,17.819c0,0.752 0.298,1.473 0.83,2.005c0.532,0.531 1.253,0.83 2.004,0.83c23.251,0 182.261,0 205.512,0c0.751,0 1.472,-0.299 2.004,-0.83c0.532,-0.532 0.83,-1.253 0.83,-2.005c0,-5.659 0,-17.819 0,-17.819Z" style="fill:#747b7b;"/><path d="M212.041,56.449c0,-4.442 -3.606,-8.049 -8.048,-8.049l-174.354,0c-4.442,0 -8.048,3.607 -8.048,8.049l0,144.871c0,4.442 3.606,8.049 8.048,8.049l174.354,0c4.442,0 8.048,-3.607 8.048,-8.049l0,-144.871Z" style="fill:#e9e9e9;"/><g id="Glass"><rect x="48.706" y="96.465" width="4.391" height="20.743" style="fill:#6d9ea9;"/><path d="M37.591,149.451c-0.075,0 -0.147,-0.03 -0.2,-0.084c-0.054,-0.053 -0.083,-0.126 -0.083,-0.201c0.087,-18.608 6.145,-33.647 13.594,-33.647c7.449,0 13.507,15.039 13.594,33.647c0,0.075 -0.029,0.148 -0.083,0.201c-0.053,0.054 -0.125,0.084 -0.2,0.084c-2.709,0 -23.913,0 -26.622,0Z" style="fill:#6d9ea9;"/><path d="M50.902,98.115c0,0 11.172,-5.006 14.922,-6.686c0.122,-0.054 0.189,-0.187 0.161,-0.318c-0.028,-0.13 -0.144,-0.224 -0.277,-0.224c-5.228,0 -24.384,0 -29.612,0c-0.134,0 -0.249,0.094 -0.277,0.224c-0.028,0.131 0.039,0.264 0.161,0.318c3.75,1.68 14.922,6.686 14.922,6.686Z" style="fill:#6d9ea9;"/></g><path d="M212.014,14.114c0,-0.075 -0.03,-0.147 -0.084,-0.2c-0.053,-0.053 -0.125,-0.083 -0.2,-0.083c-0.691,0 -2.459,0 -3.15,0c-0.075,0 -0.147,0.03 -0.201,0.083c-0.053,0.053 -0.083,0.125 -0.083,0.2c0,1.964 0,13.529 0,15.493c0,0.076 0.03,0.148 0.083,0.201c0.054,0.053 0.126,0.083 0.201,0.083c0.691,0 2.459,0 3.15,0c0.075,0 0.147,-0.03 0.2,-0.083c0.054,-0.053 0.084,-0.125 0.084,-0.201c0,-1.964 0,-13.529 0,-15.493Z" style="fill:#717171;"/><path d="M205.937,14.114c0,-0.075 -0.03,-0.147 -0.083,-0.2c-0.053,-0.053 -0.125,-0.083 -0.2,-0.083c-0.692,0 -2.459,0 -3.151,0c-0.075,0 -0.147,0.03 -0.2,0.083c-0.053,0.053 -0.083,0.125 -0.083,0.2c0,1.964 0,13.529 0,15.493c0,0.076 0.03,0.148 0.083,0.201c0.053,0.053 0.125,0.083 0.2,0.083c0.692,0 2.459,0 3.151,0c0.075,0 0.147,-0.03 0.2,-0.083c0.053,-0.053 0.083,-0.125 0.083,-0.201c0,-1.964 0,-13.529 0,-15.493Z" style="fill:#717171;"/><path d="M199.86,14.114c0,-0.075 -0.029,-0.147 -0.083,-0.2c-0.053,-0.053 -0.125,-0.083 -0.2,-0.083c-0.691,0 -2.459,0 -3.15,0c-0.075,0 -0.147,0.03 -0.201,0.083c-0.053,0.053 -0.083,0.125 -0.083,0.2c0,1.964 0,13.529 0,15.493c0,0.076 0.03,0.148 0.083,0.201c0.054,0.053 0.126,0.083 0.201,0.083c0.691,0 2.459,0 3.15,0c0.075,0 0.147,-0.03 0.2,-0.083c0.054,-0.053 0.083,-0.125 0.083,-0.201c0,-1.964 0,-13.529 0,-15.493Z" style="fill:#717171;"/><path d="M48.896,14.114c0,-0.156 -0.127,-0.283 -0.283,-0.283c-2.831,0 -25.965,0 -28.795,0c-0.157,0 -0.283,0.127 -0.283,0.283c0,1.591 0,9.392 0,10.983c0,0.157 0.126,0.283 0.283,0.283c2.83,0 25.964,0 28.795,0c0.156,0 0.283,-0.126 0.283,-0.283c0,-1.591 0,-9.392 0,-10.983Z" style="fill:#e9e9e9;"/><path d="M82.317,14.114c0,-0.156 -0.127,-0.283 -0.283,-0.283c-2.831,0 -25.965,0 -28.795,0c-0.157,0 -0.284,0.127 -0.284,0.283c0,1.591 0,9.392 0,10.983c0,0.157 0.127,0.283 0.284,0.283c2.83,0 25.964,0 28.795,0c0.156,0 0.283,-0.126 0.283,-0.283c0,-1.591 0,-9.392 0,-10.983Z" style="fill:#e9e9e9;"/><path d="M144.839,81.853l0.206,0.001l0.205,0.001l0.206,0.003l0.205,0.003l0.205,0.003l0.205,0.004l0.205,0.005l0.205,0.006l0.204,0.006l0.205,0.007l0.204,0.007l0.204,0.008l0.204,0.009l0.203,0.009l0.204,0.01l0.203,0.011l0.203,0.011l0.203,0.012l0.203,0.013l0.203,0.013l0.202,0.014l0.203,0.014l0.202,0.015l0.202,0.016l0.202,0.016l0.201,0.017l0.202,0.018l0.201,0.018l0.201,0.019l0.201,0.02l0.201,0.02l0.2,0.02l0.201,0.022l0.2,0.022l0.2,0.022l0.2,0.023l0.199,0.024l0.2,0.025l0.199,0.025l0.199,0.025l0.199,0.027l0.199,0.026l0.198,0.028l0.198,0.028l0.198,0.029l0.198,0.029l0.198,0.03l0.197,0.031l0.198,0.031l0.197,0.031l0.197,0.033l0.196,0.033l0.197,0.033l0.196,0.034l0.196,0.035l0.196,0.035l0.196,0.036l0.195,0.037l0.195,0.037l0.195,0.038l0.195,0.038l0.195,0.039l0.194,0.04l0.194,0.04l0.194,0.04l0.194,0.042l0.194,0.041l0.193,0.043l0.193,0.043l0.193,0.044l0.193,0.044l0.192,0.045l0.192,0.045l0.192,0.046l0.192,0.046l0.192,0.048l0.191,0.047l0.191,0.048l0.191,0.049l0.19,0.05l0.191,0.05l0.19,0.05l0.19,0.051l0.19,0.052l0.189,0.052l0.189,0.053l0.189,0.054l0.189,0.054l0.189,0.054l0.188,0.055l0.188,0.056l0.188,0.056l0.187,0.057l0.188,0.057l0.187,0.058l0.186,0.059l0.187,0.059l0.186,0.059l0.186,0.06l0.186,0.061l0.186,0.061l0.185,0.062l0.185,0.063l0.185,0.062l0.185,0.064l0.184,0.064l0.184,0.064l0.184,0.066l0.183,0.065l0.183,0.066l0.183,0.067l0.183,0.067l0.183,0.068l0.182,0.069l0.182,0.069l0.182,0.069l0.181,0.07l0.181,0.071l0.181,0.071l0.181,0.071l0.18,0.072l0.18,0.073l0.18,0.073l0.18,0.074l0.179,0.074l0.179,0.075l0.178,0.075l0.179,0.076l0.178,0.077l0.178,0.076l0.178,0.078l0.177,0.078l0.177,0.078l0.177,0.079l0.176,0.08l0.176,0.08l0.176,0.08l0.176,0.082l0.175,0.081l0.175,0.082l0.175,0.083l0.174,0.083l0.175,0.084l0.174,0.084l0.173,0.084l0.173,0.086l0.173,0.085l0.173,0.087l0.172,0.086l0.173,0.087l0.171,0.088l0.172,0.088l0.171,0.089l0.171,0.089l0.171,0.09l0.17,0.09l0.17,0.091l0.17,0.091l0.169,0.092l0.169,0.092l0.169,0.093l0.168,0.093l0.168,0.094l0.168,0.094l0.168,0.095l0.167,0.095l0.167,0.096l0.166,0.096l0.167,0.096l0.165,0.098l0.166,0.097l0.165,0.098l0.165,0.099l0.165,0.099l0.164,0.099l0.164,0.1l0.164,0.101l0.163,0.101l0.163,0.101l0.163,0.102l0.162,0.103l0.162,0.103l0.162,0.103l0.161,0.104l0.162,0.104l0.16,0.105l0.161,0.105l0.16,0.106l0.159,0.106l0.16,0.107l0.159,0.107l0.158,0.108l0.159,0.108l0.158,0.108l0.157,0.109l0.158,0.11l0.157,0.109l0.156,0.111l0.157,0.111l0.156,0.111l0.155,0.112l0.155,0.112l0.155,0.112l0.155,0.114l0.154,0.113l0.154,0.114l0.153,0.115l0.153,0.114l0.153,0.116l0.153,0.116l0.152,0.116l0.151,0.116l0.152,0.118l0.151,0.117l0.15,0.118l0.15,0.119l0.15,0.119l0.15,0.119l0.149,0.12l0.149,0.12l0.148,0.121l0.148,0.121l0.148,0.121l0.147,0.122l0.147,0.122l0.147,0.123l0.146,0.124l0.146,0.123l0.145,0.124l0.145,0.125l0.145,0.125l0.144,0.125l0.144,0.126l0.143,0.126l0.144,0.127l0.142,0.127l0.143,0.128l0.142,0.127l0.141,0.129l0.142,0.129l0.14,0.129l0.141,0.129l0.14,0.13l0.14,0.131l0.139,0.131l0.139,0.131l0.138,0.131l0.138,0.133l0.138,0.132l0.137,0.133l0.137,0.133l0.137,0.134l0.136,0.134l0.136,0.134l0.135,0.135l0.135,0.136l0.134,0.135l0.135,0.137l0.133,0.136l0.134,0.137l0.132,0.137l0.133,0.138l0.132,0.138l0.132,0.139l0.131,0.138l0.131,0.14l0.13,0.139l0.13,0.141l0.13,0.14l0.129,0.141l0.129,0.141l0.128,0.142l0.128,0.142l0.127,0.142l0.128,0.143l0.126,0.143l0.126,0.143l0.126,0.144l0.126,0.145l0.125,0.144l0.124,0.145l0.124,0.146l0.124,0.146l0.123,0.146l0.123,0.146l0.122,0.147l0.122,0.148l0.122,0.147l0.121,0.148l0.121,0.149l0.12,0.149l0.12,0.149l0.119,0.149l0.119,0.15l0.118,0.15l0.118,0.151l0.118,0.151l0.117,0.151l0.117,0.152l0.116,0.152l0.116,0.152l0.115,0.153l0.115,0.153l0.114,0.154l0.114,0.153l0.114,0.155l0.113,0.154l0.113,0.155l0.112,0.155l0.112,0.156l0.111,0.156l0.111,0.156l0.11,0.157l0.11,0.157l0.109,0.157l0.109,0.158l0.109,0.158l0.108,0.158l0.107,0.159l0.108,0.159l0.106,0.159l0.106,0.16l0.106,0.16l0.105,0.16l0.105,0.161l0.105,0.161l0.103,0.161l0.104,0.162l0.103,0.162l0.102,0.162l0.102,0.163l0.101,0.163l0.101,0.163l0.101,0.164l0.1,0.164l0.1,0.164l0.099,0.165l0.098,0.165l0.098,0.165l0.098,0.166l0.097,0.166l0.097,0.166l0.096,0.167l0.096,0.167l0.095,0.167l0.094,0.167l0.095,0.168l0.093,0.168l0.094,0.169l0.092,0.168l0.092,0.17l0.092,0.169l0.091,0.17l0.091,0.17l0.09,0.17l0.09,0.17l0.089,0.171l0.089,0.172l0.088,0.171l0.088,0.172l0.087,0.172l0.087,0.172l0.086,0.173l0.086,0.173l0.085,0.173l0.085,0.174l0.084,0.174l0.083,0.174l0.084,0.174l0.082,0.175l0.082,0.175l0.082,0.176l0.081,0.175l0.081,0.176l0.08,0.176l0.079,0.177l0.079,0.176l0.079,0.178l0.078,0.177l0.077,0.177l0.077,0.178l0.076,0.179l0.076,0.178l0.075,0.179l0.075,0.179l0.074,0.179l0.074,0.179l0.073,0.18l0.073,0.18l0.072,0.181l0.072,0.18l0.071,0.181l0.07,0.181l0.07,0.182l0.07,0.182l0.069,0.181l0.068,0.183l0.068,0.182l0.067,0.183l0.067,0.183l0.066,0.183l0.066,0.184l0.065,0.184l0.065,0.184l0.064,0.184l0.063,0.184l0.063,0.185l0.062,0.185l0.062,0.186l0.061,0.185l0.061,0.186l0.06,0.186l0.06,0.186l0.059,0.187l0.058,0.187l0.058,0.187l0.058,0.187l0.056,0.188l0.057,0.188l0.055,0.188l0.055,0.188l0.055,0.188l0.054,0.189l0.053,0.189l0.053,0.189l0.052,0.19l0.052,0.189l0.051,0.19l0.051,0.191l0.05,0.19l0.049,0.191l0.049,0.19l0.048,0.192l0.048,0.191l0.047,0.191l0.047,0.192l0.046,0.192l0.045,0.192l0.045,0.193l0.044,0.192l0.043,0.193l0.044,0.193l0.042,0.194l0.042,0.193l0.041,0.194l0.041,0.194l0.04,0.194l0.039,0.195l0.039,0.194l0.039,0.195l0.037,0.195l0.037,0.195l0.037,0.196l0.036,0.195l0.035,0.196l0.035,0.196l0.034,0.197l0.034,0.196l0.033,0.197l0.032,0.197l0.032,0.197l0.031,0.197l0.03,0.197l0.03,0.198l0.03,0.198l0.028,0.198l0.028,0.198l0.028,0.199l0.027,0.199l0.026,0.198l0.026,0.199l0.025,0.2l0.024,0.199l0.024,0.2l0.023,0.2l0.023,0.2l0.022,0.2l0.021,0.2l0.021,0.201l0.02,0.2l0.019,0.201l0.019,0.201l0.018,0.202l0.018,0.201l0.017,0.202l0.016,0.202l0.016,0.202l0.015,0.202l0.015,0.202l0.013,0.202l0.014,0.203l0.012,0.203l0.012,0.203l0.011,0.203l0.011,0.204l0.01,0.203l0.009,0.204l0.009,0.204l0.008,0.204l0.008,0.204l0.006,0.204l0.007,0.205l0.005,0.204l0.005,0.205l0.004,0.205l0.004,0.205l0.003,0.206l0.002,0.205l0.002,0.206l0.001,0.205l0,0.206l0,0.206l-0.001,0.206l-0.002,0.206l-0.002,0.205l-0.003,0.205l-0.004,0.205l-0.004,0.205l-0.005,0.205l-0.005,0.205l-0.007,0.204l-0.006,0.205l-0.008,0.204l-0.008,0.204l-0.009,0.204l-0.009,0.203l-0.01,0.204l-0.011,0.203l-0.011,0.204l-0.012,0.203l-0.012,0.202l-0.014,0.203l-0.013,0.203l-0.015,0.202l-0.015,0.202l-0.016,0.202l-0.016,0.202l-0.017,0.201l-0.018,0.202l-0.018,0.201l-0.019,0.201l-0.019,0.201l-0.02,0.201l-0.021,0.2l-0.021,0.201l-0.022,0.2l-0.023,0.2l-0.023,0.2l-0.024,0.199l-0.024,0.2l-0.025,0.199l-0.026,0.199l-0.026,0.199l-0.027,0.199l-0.028,0.198l-0.028,0.198l-0.028,0.198l-0.03,0.198l-0.03,0.198l-0.03,0.198l-0.031,0.197l-0.032,0.197l-0.032,0.197l-0.033,0.197l-0.034,0.196l-0.034,0.196l-0.035,0.196l-0.035,0.196l-0.036,0.196l-0.037,0.195l-0.037,0.196l-0.037,0.195l-0.039,0.194l-0.039,0.195l-0.039,0.194l-0.04,0.195l-0.041,0.194l-0.041,0.193l-0.042,0.194l-0.042,0.193l-0.044,0.193l-0.043,0.193l-0.044,0.193l-0.045,0.192l-0.045,0.192l-0.046,0.192l-0.047,0.192l-0.047,0.192l-0.048,0.191l-0.048,0.191l-0.049,0.191l-0.049,0.191l-0.05,0.19l-0.051,0.19l-0.051,0.19l-0.052,0.19l-0.052,0.189l-0.053,0.189l-0.053,0.189l-0.054,0.189l-0.055,0.189l-0.055,0.188l-0.055,0.188l-0.057,0.188l-0.056,0.187l-0.058,0.188l-0.058,0.187l-0.058,0.187l-0.059,0.186l-0.06,0.186l-0.06,0.186l-0.061,0.186l-0.061,0.186l-0.062,0.185l-0.062,0.185l-0.063,0.185l-0.063,0.185l-0.064,0.184l-0.065,0.184l-0.065,0.184l-0.066,0.183l-0.066,0.184l-0.067,0.183l-0.067,0.182l-0.068,0.183l-0.068,0.182l-0.069,0.182l-0.07,0.182l-0.07,0.181l-0.07,0.181l-0.071,0.181l-0.072,0.181l-0.072,0.18l-0.073,0.18l-0.073,0.18l-0.074,0.18l-0.074,0.179l-0.075,0.179l-0.075,0.179l-0.076,0.178l-0.076,0.178l-0.077,0.178l-0.077,0.178l-0.078,0.177l-0.079,0.177l-0.079,0.177l-0.079,0.176l-0.08,0.176l-0.081,0.176l-0.081,0.176l-0.082,0.175l-0.082,0.175l-0.082,0.175l-0.084,0.175l-0.083,0.174l-0.084,0.174l-0.085,0.173l-0.085,0.174l-0.086,0.172l-0.086,0.173l-0.087,0.173l-0.087,0.172l-0.088,0.171l-0.088,0.172l-0.089,0.171l-0.089,0.171l-0.09,0.171l-0.09,0.17l-0.091,0.17l-0.091,0.17l-0.092,0.169l-0.092,0.169l-0.092,0.169l-0.094,0.168l-0.093,0.168l-0.095,0.168l-0.094,0.168l-0.095,0.167l-0.096,0.167l-0.096,0.166l-0.097,0.167l-0.097,0.166l-0.098,0.165l-0.098,0.165l-0.098,0.165l-0.099,0.165l-0.1,0.164l-0.1,0.164l-0.101,0.164l-0.101,0.163l-0.101,0.163l-0.102,0.163l-0.102,0.162l-0.103,0.163l-0.104,0.161l-0.103,0.162l-0.105,0.161l-0.105,0.16l-0.105,0.161l-0.106,0.16l-0.106,0.159l-0.106,0.16l-0.108,0.159l-0.107,0.159l-0.108,0.158l-0.109,0.158l-0.109,0.158l-0.109,0.157l-0.11,0.157l-0.11,0.156l-0.111,0.157l-0.111,0.156l-0.112,0.155l-0.112,0.155l-0.113,0.155l-0.113,0.155l-0.114,0.154l-0.114,0.154l-0.114,0.153l-0.115,0.153l-0.115,0.153l-0.116,0.153l-0.116,0.152l-0.117,0.151l-0.117,0.152l-0.118,0.151l-0.118,0.15l-0.118,0.15l-0.119,0.15l-0.119,0.15l-0.12,0.149l-0.12,0.149l-0.121,0.148l-0.121,0.148l-0.122,0.148l-0.122,0.147l-0.122,0.147l-0.123,0.147l-0.123,0.146l-0.124,0.146l-0.124,0.145l-0.124,0.145l-0.125,0.145l-0.126,0.144l-0.126,0.144l-0.126,0.144l-0.126,0.143l-0.128,0.143l-0.127,0.142l-0.128,0.142l-0.128,0.142l-0.129,0.141l-0.129,0.141l-0.13,0.14l-0.13,0.14l-0.13,0.14l-0.131,0.139l-0.131,0.139l-0.132,0.138l-0.132,0.139l-0.133,0.137l-0.132,0.138l-0.134,0.136l-0.133,0.137l-0.135,0.136l-0.134,0.136l-0.135,0.135l-0.135,0.135l-0.136,0.135l-0.136,0.134l-0.137,0.133l-0.137,0.134l-0.137,0.133l-0.138,0.132l-0.138,0.132l-0.138,0.132l-0.139,0.131l-0.139,0.131l-0.14,0.13l-0.14,0.13l-0.141,0.13l-0.14,0.129l-0.142,0.129l-0.141,0.128l-0.142,0.128l-0.143,0.128l-0.142,0.127l-0.144,0.126l-0.143,0.127l-0.144,0.125l-0.144,0.126l-0.145,0.125l-0.145,0.124l-0.145,0.124l-0.146,0.124l-0.146,0.123l-0.147,0.123l-0.147,0.122l-0.147,0.122l-0.148,0.122l-0.148,0.121l-0.148,0.121l-0.149,0.12l-0.149,0.12l-0.15,0.119l-0.15,0.119l-0.15,0.118l-0.15,0.118l-0.151,0.118l-0.152,0.117l-0.151,0.117l-0.152,0.116l-0.153,0.116l-0.153,0.115l-0.153,0.115l-0.153,0.114l-0.154,0.114l-0.154,0.114l-0.155,0.113l-0.155,0.113l-0.155,0.112l-0.155,0.112l-0.156,0.111l-0.157,0.111l-0.156,0.11l-0.157,0.11l-0.158,0.109l-0.157,0.109l-0.158,0.109l-0.159,0.108l-0.158,0.108l-0.159,0.107l-0.16,0.106l-0.159,0.107l-0.16,0.105l-0.161,0.106l-0.16,0.104l-0.162,0.105l-0.161,0.103l-0.162,0.104l-0.162,0.103l-0.162,0.102l-0.163,0.102l-0.163,0.102l-0.163,0.101l-0.164,0.1l-0.164,0.1l-0.164,0.1l-0.165,0.099l-0.165,0.098l-0.165,0.098l-0.166,0.098l-0.165,0.097l-0.167,0.097l-0.166,0.096l-0.167,0.096l-0.167,0.095l-0.168,0.094l-0.168,0.095l-0.168,0.093l-0.168,0.094l-0.169,0.092l-0.169,0.093l-0.169,0.091l-0.17,0.092l-0.17,0.09l-0.17,0.09l-0.171,0.09l-0.171,0.089l-0.171,0.089l-0.172,0.088l-0.171,0.088l-0.173,0.087l-0.172,0.087l-0.173,0.086l-0.173,0.086l-0.173,0.085l-0.173,0.085l-0.174,0.084l-0.175,0.084l-0.174,0.083l-0.175,0.082l-0.175,0.082l-0.175,0.082l-0.176,0.081l-0.176,0.081l-0.176,0.08l-0.176,0.079l-0.177,0.079l-0.177,0.079l-0.177,0.078l-0.178,0.077l-0.178,0.077l-0.178,0.076l-0.179,0.076l-0.178,0.076l-0.179,0.074l-0.179,0.075l-0.18,0.073l-0.18,0.074l-0.18,0.072l-0.18,0.072l-0.181,0.072l-0.181,0.071l-0.181,0.07l-0.181,0.07l-0.182,0.07l-0.182,0.069l-0.182,0.068l-0.183,0.068l-0.183,0.067l-0.183,0.067l-0.183,0.066l-0.183,0.066l-0.184,0.065l-0.184,0.065l-0.184,0.064l-0.185,0.063l-0.185,0.063l-0.185,0.062l-0.185,0.062l-0.186,0.061l-0.186,0.061l-0.186,0.06l-0.186,0.06l-0.187,0.059l-0.186,0.058l-0.187,0.058l-0.188,0.058l-0.187,0.056l-0.188,0.057l-0.188,0.055l-0.188,0.055l-0.189,0.055l-0.189,0.054l-0.189,0.053l-0.189,0.053l-0.189,0.052l-0.19,0.052l-0.19,0.051l-0.19,0.051l-0.191,0.05l-0.19,0.049l-0.191,0.049l-0.191,0.048l-0.191,0.048l-0.192,0.047l-0.192,0.047l-0.192,0.046l-0.192,0.045l-0.192,0.045l-0.193,0.044l-0.193,0.044l-0.193,0.043l-0.193,0.042l-0.194,0.042l-0.194,0.041l-0.194,0.041l-0.194,0.04l-0.194,0.039l-0.195,0.039l-0.195,0.039l-0.195,0.037l-0.195,0.038l-0.195,0.036l-0.196,0.036l-0.196,0.035l-0.196,0.035l-0.196,0.034l-0.197,0.034l-0.196,0.033l-0.197,0.032l-0.197,0.032l-0.198,0.031l-0.197,0.031l-0.198,0.029l-0.198,0.03l-0.198,0.028l-0.198,0.029l-0.198,0.027l-0.199,0.027l-0.199,0.026l-0.199,0.026l-0.199,0.025l-0.2,0.024l-0.199,0.024l-0.2,0.023l-0.2,0.023l-0.2,0.022l-0.201,0.021l-0.2,0.021l-0.201,0.02l-0.201,0.019l-0.201,0.019l-0.201,0.019l-0.202,0.017l-0.201,0.017l-0.202,0.016l-0.202,0.016l-0.202,0.015l-0.203,0.015l-0.202,0.013l-0.203,0.014l-0.203,0.012l-0.203,0.012l-0.203,0.011l-0.203,0.011l-0.204,0.01l-0.203,0.009l-0.204,0.009l-0.204,0.008l-0.204,0.008l-0.205,0.007l-0.204,0.006l-0.205,0.005l-0.205,0.005l-0.205,0.004l-0.205,0.004l-0.205,0.003l-0.206,0.002l-0.205,0.002l-0.206,0.001l-0.206,0l-0.206,0l-0.206,-0.001l-0.205,-0.002l-0.206,-0.002l-0.205,-0.003l-0.205,-0.004l-0.205,-0.004l-0.205,-0.005l-0.204,-0.005l-0.205,-0.006l-0.204,-0.007l-0.204,-0.008l-0.204,-0.008l-0.204,-0.009l-0.204,-0.009l-0.204,-0.01l-0.203,-0.011l-0.203,-0.011l-0.203,-0.012l-0.203,-0.012l-0.203,-0.014l-0.202,-0.013l-0.202,-0.015l-0.203,-0.015l-0.202,-0.016l-0.201,-0.016l-0.202,-0.017l-0.201,-0.017l-0.202,-0.019l-0.201,-0.019l-0.201,-0.019l-0.2,-0.02l-0.201,-0.021l-0.2,-0.021l-0.201,-0.022l-0.2,-0.023l-0.199,-0.023l-0.2,-0.024l-0.199,-0.024l-0.2,-0.025l-0.199,-0.026l-0.199,-0.026l-0.198,-0.027l-0.199,-0.027l-0.198,-0.029l-0.198,-0.028l-0.198,-0.03l-0.198,-0.029l-0.197,-0.031l-0.197,-0.031l-0.198,-0.032l-0.196,-0.032l-0.197,-0.033l-0.197,-0.034l-0.196,-0.034l-0.196,-0.035l-0.196,-0.035l-0.195,-0.036l-0.196,-0.036l-0.195,-0.038l-0.195,-0.037l-0.195,-0.039l-0.195,-0.039l-0.194,-0.039l-0.194,-0.04l-0.194,-0.041l-0.194,-0.041l-0.193,-0.042l-0.194,-0.042l-0.193,-0.043l-0.193,-0.044l-0.192,-0.044l-0.193,-0.045l-0.192,-0.045l-0.192,-0.046l-0.192,-0.047l-0.191,-0.047l-0.192,-0.048l-0.191,-0.048l-0.191,-0.049l-0.19,-0.049l-0.191,-0.05l-0.19,-0.051l-0.19,-0.051l-0.189,-0.052l-0.19,-0.052l-0.189,-0.053l-0.189,-0.053l-0.189,-0.054l-0.188,-0.055l-0.189,-0.055l-0.188,-0.055l-0.187,-0.057l-0.188,-0.056l-0.187,-0.058l-0.187,-0.058l-0.187,-0.058l-0.187,-0.059l-0.186,-0.06l-0.186,-0.06l-0.186,-0.061l-0.185,-0.061l-0.186,-0.062l-0.185,-0.062l-0.185,-0.063l-0.184,-0.063l-0.184,-0.064l-0.185,-0.065l-0.183,-0.065l-0.184,-0.066l-0.183,-0.066l-0.183,-0.067l-0.183,-0.067l-0.182,-0.068l-0.183,-0.068l-0.182,-0.069l-0.181,-0.07l-0.182,-0.07l-0.181,-0.07l-0.181,-0.071l-0.18,-0.072l-0.181,-0.072l-0.18,-0.072l-0.18,-0.074l-0.179,-0.073l-0.179,-0.075l-0.179,-0.074l-0.179,-0.076l-0.179,-0.076l-0.178,-0.076l-0.178,-0.077l-0.177,-0.077l-0.178,-0.078l-0.177,-0.079l-0.176,-0.079l-0.177,-0.079l-0.176,-0.08l-0.176,-0.081l-0.176,-0.081l-0.175,-0.082l-0.175,-0.082l-0.175,-0.082l-0.174,-0.083l-0.174,-0.084l-0.174,-0.084l-0.174,-0.085l-0.173,-0.085l-0.173,-0.086l-0.173,-0.086l-0.172,-0.087l-0.172,-0.087l-0.172,-0.088l-0.172,-0.088l-0.171,-0.089l-0.171,-0.089l-0.17,-0.09l-0.171,-0.09l-0.17,-0.09l-0.169,-0.092l-0.17,-0.091l-0.169,-0.093l-0.168,-0.092l-0.169,-0.094l-0.168,-0.093l-0.168,-0.095l-0.167,-0.094l-0.167,-0.095l-0.167,-0.096l-0.167,-0.096l-0.166,-0.097l-0.166,-0.097l-0.166,-0.098l-0.165,-0.098l-0.165,-0.098l-0.165,-0.099l-0.164,-0.1l-0.164,-0.1l-0.164,-0.1l-0.163,-0.101l-0.163,-0.102l-0.163,-0.102l-0.162,-0.102l-0.162,-0.103l-0.162,-0.104l-0.161,-0.103l-0.161,-0.105l-0.161,-0.104l-0.16,-0.106l-0.16,-0.105l-0.16,-0.107l-0.159,-0.106l-0.159,-0.107l-0.159,-0.108l-0.158,-0.108l-0.158,-0.109l-0.158,-0.109l-0.157,-0.109l-0.157,-0.11l-0.157,-0.11l-0.156,-0.111l-0.156,-0.111l-0.156,-0.112l-0.155,-0.112l-0.155,-0.113l-0.154,-0.113l-0.155,-0.114l-0.153,-0.114l-0.154,-0.114l-0.153,-0.115l-0.153,-0.115l-0.152,-0.116l-0.152,-0.116l-0.152,-0.117l-0.151,-0.117l-0.151,-0.118l-0.151,-0.118l-0.15,-0.118l-0.15,-0.119l-0.149,-0.119l-0.15,-0.12l-0.148,-0.12l-0.149,-0.121l-0.148,-0.121l-0.147,-0.122l-0.148,-0.122l-0.147,-0.122l-0.146,-0.123l-0.146,-0.123l-0.146,-0.124l-0.146,-0.124l-0.145,-0.124l-0.144,-0.125l-0.145,-0.126l-0.144,-0.125l-0.143,-0.127l-0.143,-0.126l-0.143,-0.127l-0.142,-0.128l-0.142,-0.128l-0.142,-0.128l-0.141,-0.129l-0.141,-0.129l-0.141,-0.13l-0.14,-0.13l-0.139,-0.13l-0.14,-0.131l-0.139,-0.131l-0.138,-0.132l-0.138,-0.132l-0.138,-0.132l-0.137,-0.133l-0.137,-0.134l-0.137,-0.133l-0.136,-0.134l-0.135,-0.135l-0.136,-0.135l-0.135,-0.135l-0.134,-0.136l-0.134,-0.136l-0.134,-0.137l-0.133,-0.136l-0.133,-0.138l-0.133,-0.137l-0.132,-0.139l-0.131,-0.138l-0.132,-0.139l-0.13,-0.139l-0.131,-0.14l-0.13,-0.14l-0.129,-0.14l-0.13,-0.141l-0.128,-0.141l-0.129,-0.142l-0.128,-0.142l-0.127,-0.142l-0.127,-0.143l-0.127,-0.143l-0.126,-0.144l-0.126,-0.144l-0.125,-0.144l-0.125,-0.145l-0.125,-0.145l-0.124,-0.145l-0.124,-0.146l-0.123,-0.146l-0.123,-0.147l-0.122,-0.147l-0.122,-0.147l-0.121,-0.148l-0.122,-0.148l-0.12,-0.148l-0.12,-0.149l-0.12,-0.149l-0.12,-0.15l-0.118,-0.15l-0.119,-0.15l-0.118,-0.15l-0.117,-0.151l-0.118,-0.152l-0.116,-0.151l-0.117,-0.152l-0.115,-0.153l-0.116,-0.153l-0.115,-0.153l-0.114,-0.153l-0.114,-0.154l-0.114,-0.154l-0.113,-0.155l-0.112,-0.155l-0.112,-0.155l-0.112,-0.155l-0.111,-0.156l-0.111,-0.157l-0.111,-0.156l-0.11,-0.157l-0.109,-0.157l-0.109,-0.158l-0.109,-0.158l-0.108,-0.158l-0.107,-0.159l-0.107,-0.159l-0.107,-0.16l-0.106,-0.159l-0.106,-0.16l-0.105,-0.161l-0.105,-0.16l-0.104,-0.161l-0.104,-0.162l-0.103,-0.161l-0.103,-0.163l-0.103,-0.162l-0.102,-0.163l-0.101,-0.163l-0.101,-0.163l-0.101,-0.164l-0.1,-0.164l-0.099,-0.164l-0.099,-0.165l-0.099,-0.165l-0.098,-0.165l-0.098,-0.165l-0.097,-0.166l-0.096,-0.167l-0.097,-0.166l-0.095,-0.167l-0.095,-0.167l-0.095,-0.168l-0.094,-0.168l-0.094,-0.168l-0.093,-0.168l-0.093,-0.169l-0.092,-0.169l-0.092,-0.169l-0.091,-0.17l-0.091,-0.17l-0.09,-0.17l-0.09,-0.171l-0.089,-0.171l-0.089,-0.171l-0.088,-0.172l-0.088,-0.171l-0.087,-0.172l-0.087,-0.173l-0.086,-0.173l-0.085,-0.172l-0.086,-0.174l-0.084,-0.173l-0.084,-0.174l-0.084,-0.174l-0.083,-0.175l-0.083,-0.175l-0.082,-0.175l-0.082,-0.175l-0.081,-0.176l-0.08,-0.176l-0.08,-0.176l-0.08,-0.176l-0.079,-0.177l-0.078,-0.177l-0.078,-0.177l-0.078,-0.178l-0.077,-0.178l-0.076,-0.178l-0.076,-0.178l-0.075,-0.179l-0.075,-0.179l-0.074,-0.179l-0.074,-0.18l-0.073,-0.18l-0.073,-0.18l-0.072,-0.18l-0.071,-0.181l-0.072,-0.181l-0.07,-0.181l-0.07,-0.181l-0.07,-0.182l-0.068,-0.182l-0.069,-0.182l-0.068,-0.183l-0.067,-0.182l-0.067,-0.183l-0.066,-0.184l-0.066,-0.183l-0.065,-0.184l-0.064,-0.184l-0.064,-0.184l-0.064,-0.185l-0.063,-0.185l-0.062,-0.185l-0.062,-0.185l-0.061,-0.186l-0.061,-0.186l-0.06,-0.186l-0.059,-0.186l-0.059,-0.186l-0.059,-0.187l-0.058,-0.187l-0.057,-0.188l-0.057,-0.187l-0.056,-0.188l-0.056,-0.188l-0.055,-0.188l-0.055,-0.189l-0.054,-0.189l-0.053,-0.189l-0.053,-0.189l-0.052,-0.189l-0.052,-0.19l-0.051,-0.19l-0.05,-0.19l-0.05,-0.19l-0.05,-0.191l-0.049,-0.191l-0.048,-0.191l-0.048,-0.191l-0.047,-0.192l-0.046,-0.192l-0.046,-0.192l-0.046,-0.192l-0.044,-0.192l-0.045,-0.193l-0.043,-0.193l-0.043,-0.193l-0.043,-0.193l-0.042,-0.194l-0.041,-0.193l-0.04,-0.194l-0.041,-0.195l-0.039,-0.194l-0.039,-0.195l-0.038,-0.194l-0.038,-0.195l-0.037,-0.196l-0.037,-0.195l-0.036,-0.196l-0.035,-0.196l-0.035,-0.196l-0.034,-0.196l-0.033,-0.196l-0.033,-0.197l-0.033,-0.197l-0.031,-0.197l-0.032,-0.197l-0.03,-0.198l-0.03,-0.198l-0.029,-0.198l-0.029,-0.198l-0.028,-0.198l-0.028,-0.198l-0.027,-0.199l-0.026,-0.199l-0.025,-0.199l-0.025,-0.199l-0.025,-0.2l-0.024,-0.199l-0.023,-0.2l-0.022,-0.2l-0.022,-0.2l-0.022,-0.201l-0.02,-0.2l-0.021,-0.201l-0.019,-0.201l-0.019,-0.201l-0.018,-0.201l-0.018,-0.202l-0.017,-0.201l-0.016,-0.202l-0.016,-0.202l-0.015,-0.202l-0.014,-0.202l-0.014,-0.203l-0.013,-0.203l-0.013,-0.202l-0.012,-0.203l-0.011,-0.204l-0.011,-0.203l-0.01,-0.204l-0.009,-0.203l-0.009,-0.204l-0.008,-0.204l-0.007,-0.204l-0.007,-0.205l-0.006,-0.204l-0.006,-0.205l-0.005,-0.205l-0.004,-0.205l-0.003,-0.205l-0.003,-0.205l-0.003,-0.205l-0.001,-0.206l-0.001,-0.206l-0.001,-0.206l0.001,-0.206l0.001,-0.205l0.001,-0.206l0.003,-0.205l0.003,-0.206l0.003,-0.205l0.004,-0.205l0.005,-0.205l0.006,-0.204l0.006,-0.205l0.007,-0.204l0.007,-0.204l0.008,-0.204l0.009,-0.204l0.009,-0.204l0.01,-0.203l0.011,-0.204l0.011,-0.203l0.012,-0.203l0.013,-0.203l0.013,-0.203l0.014,-0.202l0.014,-0.202l0.015,-0.202l0.016,-0.202l0.016,-0.202l0.017,-0.202l0.018,-0.201l0.018,-0.202l0.019,-0.201l0.019,-0.201l0.021,-0.2l0.02,-0.201l0.022,-0.2l0.022,-0.2l0.022,-0.2l0.023,-0.2l0.024,-0.2l0.025,-0.199l0.025,-0.2l0.025,-0.199l0.026,-0.198l0.027,-0.199l0.028,-0.199l0.028,-0.198l0.029,-0.198l0.029,-0.198l0.03,-0.198l0.03,-0.197l0.032,-0.197l0.031,-0.197l0.033,-0.197l0.033,-0.197l0.033,-0.196l0.034,-0.197l0.035,-0.196l0.035,-0.196l0.036,-0.195l0.037,-0.196l0.037,-0.195l0.038,-0.195l0.038,-0.195l0.039,-0.194l0.039,-0.195l0.041,-0.194l0.04,-0.194l0.041,-0.194l0.042,-0.193l0.043,-0.194l0.043,-0.193l0.043,-0.193l0.045,-0.192l0.044,-0.193l0.046,-0.192l0.046,-0.192l0.046,-0.192l0.047,-0.191l0.048,-0.191l0.048,-0.192l0.049,-0.19l0.05,-0.191l0.05,-0.19l0.05,-0.191l0.051,-0.19l0.052,-0.189l0.052,-0.19l0.053,-0.189l0.053,-0.189l0.054,-0.189l0.055,-0.188l0.055,-0.188l0.056,-0.188l0.056,-0.188l0.057,-0.188l0.057,-0.187l0.058,-0.187l0.059,-0.187l0.059,-0.187l0.059,-0.186l0.06,-0.186l0.061,-0.186l0.061,-0.185l0.062,-0.186l0.062,-0.185l0.063,-0.185l0.064,-0.184l0.064,-0.184l0.064,-0.184l0.065,-0.184l0.066,-0.184l0.066,-0.183l0.067,-0.183l0.067,-0.183l0.068,-0.182l0.069,-0.183l0.068,-0.181l0.07,-0.182l0.07,-0.182l0.07,-0.181l0.072,-0.181l0.071,-0.18l0.072,-0.181l0.073,-0.18l0.073,-0.18l0.074,-0.179l0.074,-0.179l0.075,-0.179l0.075,-0.179l0.076,-0.178l0.076,-0.179l0.077,-0.178l0.078,-0.177l0.078,-0.177l0.078,-0.178l0.079,-0.176l0.08,-0.177l0.08,-0.176l0.08,-0.176l0.081,-0.175l0.082,-0.176l0.082,-0.175l0.083,-0.175l0.083,-0.174l0.084,-0.174l0.084,-0.174l0.084,-0.174l0.086,-0.173l0.085,-0.173l0.086,-0.173l0.087,-0.172l0.087,-0.172l0.088,-0.172l0.088,-0.171l0.089,-0.172l0.089,-0.171l0.09,-0.17l0.09,-0.17l0.091,-0.17l0.091,-0.17l0.092,-0.169l0.092,-0.17l0.093,-0.168l0.093,-0.169l0.094,-0.168l0.094,-0.168l0.095,-0.167l0.095,-0.167l0.095,-0.167l0.097,-0.167l0.096,-0.166l0.097,-0.166l0.098,-0.166l0.098,-0.165l0.099,-0.165l0.099,-0.165l0.099,-0.164l0.1,-0.164l0.101,-0.164l0.101,-0.163l0.101,-0.163l0.102,-0.163l0.103,-0.162l0.103,-0.162l0.103,-0.162l0.104,-0.161l0.104,-0.161l0.105,-0.161l0.105,-0.16l0.106,-0.16l0.106,-0.16l0.107,-0.159l0.107,-0.159l0.107,-0.159l0.108,-0.158l0.109,-0.158l0.109,-0.158l0.109,-0.157l0.11,-0.157l0.111,-0.157l0.111,-0.156l0.111,-0.156l0.112,-0.156l0.112,-0.155l0.112,-0.155l0.113,-0.154l0.114,-0.155l0.114,-0.153l0.114,-0.154l0.115,-0.153l0.116,-0.153l0.115,-0.152l0.117,-0.152l0.116,-0.152l0.118,-0.151l0.117,-0.151l0.118,-0.151l0.119,-0.15l0.118,-0.15l0.12,-0.149l0.12,-0.149l0.12,-0.149l0.12,-0.149l0.122,-0.148l0.121,-0.147l0.122,-0.148l0.122,-0.147l0.123,-0.146l0.123,-0.146l0.124,-0.146l0.124,-0.146l0.125,-0.145l0.125,-0.144l0.125,-0.145l0.126,-0.144l0.126,-0.143l0.127,-0.143l0.127,-0.143l0.127,-0.142l0.128,-0.142l0.129,-0.142l0.128,-0.141l0.13,-0.141l0.129,-0.14l0.13,-0.141l0.131,-0.139l0.13,-0.14l0.132,-0.138l0.131,-0.139l0.132,-0.138l0.133,-0.138l0.133,-0.137l0.133,-0.137l0.134,-0.136l0.134,-0.137l0.134,-0.135l0.135,-0.136l0.136,-0.135l0.135,-0.134l0.136,-0.134l0.137,-0.134l0.137,-0.133l0.137,-0.133l0.138,-0.132l0.138,-0.133l0.138,-0.131l0.139,-0.131l0.14,-0.131l0.139,-0.131l0.14,-0.13l0.141,-0.129l0.141,-0.129l0.141,-0.129l0.142,-0.129l0.142,-0.127l0.142,-0.128l0.143,-0.127l0.143,-0.127l0.143,-0.126l0.144,-0.126l0.145,-0.125l0.144,-0.125l0.145,-0.125l0.146,-0.124l0.146,-0.123l0.146,-0.124l0.146,-0.123l0.147,-0.122l0.148,-0.122l0.147,-0.121l0.148,-0.121l0.149,-0.121l0.148,-0.12l0.15,-0.12l0.149,-0.119l0.15,-0.119l0.15,-0.119l0.151,-0.118l0.151,-0.117l0.151,-0.118l0.152,-0.116l0.152,-0.116l0.152,-0.116l0.153,-0.116l0.153,-0.114l0.154,-0.115l0.153,-0.114l0.155,-0.113l0.154,-0.114l0.155,-0.112l0.155,-0.112l0.156,-0.112l0.156,-0.111l0.156,-0.111l0.157,-0.111l0.157,-0.109l0.157,-0.11l0.158,-0.109l0.158,-0.108l0.158,-0.108l0.159,-0.108l0.159,-0.107l0.159,-0.107l0.16,-0.106l0.16,-0.106l0.16,-0.105l0.161,-0.105l0.161,-0.104l0.161,-0.104l0.162,-0.103l0.162,-0.103l0.162,-0.103l0.163,-0.102l0.163,-0.101l0.163,-0.101l0.164,-0.101l0.164,-0.1l0.164,-0.099l0.165,-0.099l0.165,-0.099l0.165,-0.098l0.166,-0.097l0.166,-0.098l0.166,-0.096l0.167,-0.096l0.167,-0.096l0.167,-0.095l0.167,-0.095l0.168,-0.094l0.168,-0.094l0.169,-0.093l0.168,-0.093l0.169,-0.092l0.17,-0.092l0.169,-0.091l0.17,-0.091l0.171,-0.09l0.17,-0.09l0.171,-0.089l0.171,-0.089l0.172,-0.088l0.172,-0.088l0.172,-0.087l0.172,-0.086l0.173,-0.087l0.173,-0.085l0.173,-0.086l0.174,-0.084l0.174,-0.084l0.174,-0.084l0.174,-0.083l0.175,-0.083l0.175,-0.082l0.175,-0.081l0.176,-0.082l0.176,-0.08l0.176,-0.08l0.177,-0.08l0.176,-0.079l0.177,-0.078l0.178,-0.078l0.177,-0.078l0.178,-0.076l0.178,-0.077l0.179,-0.076l0.179,-0.075l0.179,-0.075l0.179,-0.074l0.179,-0.074l0.18,-0.073l0.18,-0.073l0.181,-0.072l0.18,-0.071l0.181,-0.071l0.181,-0.071l0.182,-0.07l0.181,-0.069l0.182,-0.069l0.183,-0.069l0.182,-0.068l0.183,-0.067l0.183,-0.067l0.183,-0.066l0.184,-0.065l0.183,-0.066l0.185,-0.064l0.184,-0.064l0.184,-0.064l0.185,-0.062l0.185,-0.063l0.186,-0.062l0.185,-0.061l0.186,-0.061l0.186,-0.06l0.186,-0.059l0.187,-0.059l0.187,-0.059l0.187,-0.058l0.187,-0.057l0.188,-0.057l0.187,-0.056l0.188,-0.056l0.189,-0.055l0.188,-0.054l0.189,-0.054l0.189,-0.054l0.189,-0.053l0.19,-0.052l0.189,-0.052l0.19,-0.051l0.19,-0.05l0.191,-0.05l0.19,-0.05l0.191,-0.049l0.191,-0.048l0.192,-0.047l0.191,-0.048l0.192,-0.046l0.192,-0.046l0.192,-0.045l0.193,-0.045l0.192,-0.044l0.193,-0.044l0.193,-0.043l0.194,-0.043l0.193,-0.041l0.194,-0.042l0.194,-0.04l0.194,-0.04l0.194,-0.04l0.195,-0.039l0.195,-0.038l0.195,-0.038l0.195,-0.037l0.196,-0.037l0.195,-0.036l0.196,-0.035l0.196,-0.035l0.196,-0.034l0.197,-0.033l0.197,-0.033l0.196,-0.033l0.198,-0.031l0.197,-0.031l0.197,-0.031l0.198,-0.03l0.198,-0.029l0.198,-0.029l0.198,-0.028l0.199,-0.028l0.198,-0.026l0.199,-0.027l0.199,-0.025l0.2,-0.025l0.199,-0.025l0.2,-0.024l0.199,-0.023l0.2,-0.022l0.201,-0.022l0.2,-0.022l0.201,-0.02l0.2,-0.02l0.201,-0.02l0.201,-0.019l0.202,-0.018l0.201,-0.018l0.202,-0.017l0.201,-0.016l0.202,-0.016l0.203,-0.015l0.202,-0.014l0.202,-0.014l0.203,-0.013l0.203,-0.013l0.203,-0.012l0.203,-0.011l0.203,-0.011l0.204,-0.01l0.204,-0.009l0.204,-0.009l0.204,-0.008l0.204,-0.007l0.204,-0.007l0.205,-0.006l0.204,-0.006l0.205,-0.005l0.205,-0.004l0.205,-0.003l0.205,-0.003l0.206,-0.003l0.205,-0.001l0.206,-0.001l0.206,0l0.206,0Zm-0.349,20l-0.142,0l-0.141,0.002l-0.143,0.001l-0.142,0.002l-0.142,0.003l-0.142,0.003l-0.14,0.003l-0.141,0.004l-0.143,0.004l-0.141,0.005l-0.139,0.005l-0.142,0.005l-0.141,0.006l-0.138,0.007l-0.142,0.007l-0.141,0.007l-0.138,0.008l-0.139,0.008l-0.14,0.009l-0.141,0.009l-0.139,0.009l-0.139,0.01l-0.139,0.011l-0.139,0.01l-0.14,0.012l-0.137,0.011l-0.138,0.012l-0.14,0.013l-0.137,0.013l-0.139,0.013l-0.138,0.014l-0.136,0.014l-0.138,0.015l-0.139,0.015l-0.136,0.016l-0.136,0.015l-0.138,0.017l-0.137,0.017l-0.136,0.017l-0.138,0.017l-0.135,0.018l-0.136,0.019l-0.138,0.019l-0.134,0.019l-0.136,0.019l-0.136,0.021l-0.136,0.02l-0.134,0.021l-0.135,0.021l-0.136,0.022l-0.134,0.022l-0.134,0.023l-0.136,0.023l-0.136,0.023l-0.132,0.024l-0.135,0.024l-0.133,0.024l-0.132,0.025l-0.137,0.026l-0.132,0.026l-0.133,0.026l-0.133,0.027l-0.134,0.027l-0.132,0.027l-0.131,0.028l-0.134,0.028l-0.134,0.029l-0.131,0.029l-0.132,0.029l-0.131,0.03l-0.131,0.03l-0.133,0.031l-0.133,0.031l-0.129,0.031l-0.131,0.032l-0.132,0.032l-0.13,0.033l-0.131,0.033l-0.131,0.033l-0.129,0.034l-0.13,0.034l-0.132,0.035l-0.129,0.035l-0.128,0.035l-0.131,0.036l-0.131,0.036l-0.126,0.036l-0.13,0.037l-0.129,0.038l-0.129,0.037l-0.128,0.038l-0.129,0.039l-0.129,0.039l-0.125,0.038l-0.13,0.04l-0.128,0.041l-0.125,0.039l-0.128,0.041l-0.129,0.042l-0.127,0.041l-0.127,0.042l-0.125,0.042l-0.126,0.042l-0.127,0.043l-0.126,0.044l-0.127,0.044l-0.125,0.044l-0.126,0.044l-0.126,0.045l-0.125,0.046l-0.124,0.045l-0.124,0.046l-0.126,0.046l-0.125,0.047l-0.124,0.047l-0.126,0.048l-0.124,0.048l-0.121,0.047l-0.126,0.05l-0.124,0.049l-0.12,0.048l-0.125,0.05l-0.125,0.051l-0.121,0.05l-0.122,0.051l-0.122,0.051l-0.124,0.052l-0.121,0.051l-0.122,0.052l-0.123,0.054l-0.121,0.052l-0.122,0.054l-0.12,0.053l-0.12,0.054l-0.121,0.054l-0.121,0.055l-0.122,0.056l-0.119,0.055l-0.121,0.057l-0.12,0.056l-0.118,0.056l-0.12,0.057l-0.119,0.057l-0.119,0.058l-0.119,0.057l-0.118,0.059l-0.12,0.059l-0.118,0.059l-0.115,0.058l-0.119,0.06l-0.121,0.062l-0.117,0.06l-0.116,0.06l-0.118,0.061l-0.116,0.062l-0.117,0.062l-0.115,0.061l-0.117,0.063l-0.118,0.064l-0.113,0.062l-0.118,0.064l-0.117,0.065l-0.114,0.064l-0.113,0.063l-0.116,0.065l-0.115,0.066l-0.113,0.065l-0.115,0.067l-0.116,0.067l-0.112,0.066l-0.112,0.065l-0.114,0.068l-0.116,0.069l-0.111,0.067l-0.113,0.069l-0.111,0.067l-0.112,0.069l-0.115,0.071l-0.113,0.07l-0.11,0.069l-0.111,0.07l-0.113,0.072l-0.109,0.07l-0.111,0.071l-0.109,0.071l-0.112,0.073l-0.113,0.074l-0.106,0.07l-0.109,0.073l-0.112,0.074l-0.108,0.073l-0.108,0.074l-0.111,0.075l-0.11,0.076l-0.107,0.074l-0.107,0.074l-0.108,0.076l-0.107,0.075l-0.107,0.076l-0.108,0.077l-0.106,0.077l-0.11,0.079l-0.103,0.075l-0.107,0.078l-0.108,0.08l-0.104,0.077l-0.105,0.078l-0.106,0.079l-0.104,0.079l-0.106,0.081l-0.105,0.08l-0.105,0.08l-0.101,0.079l-0.105,0.081l-0.106,0.084l-0.101,0.079l-0.102,0.081l-0.106,0.084l-0.103,0.083l-0.101,0.082l-0.1,0.081l-0.102,0.084l-0.102,0.084l-0.103,0.085l-0.103,0.086l-0.098,0.082l-0.098,0.083l-0.102,0.086l-0.102,0.087l-0.101,0.087l-0.098,0.084l-0.098,0.085l-0.1,0.088l-0.097,0.085l-0.1,0.089l-0.101,0.09l-0.096,0.085l-0.097,0.088l-0.096,0.087l-0.098,0.089l-0.099,0.091l-0.096,0.089l-0.096,0.089l-0.095,0.089l-0.094,0.088l-0.098,0.093l-0.098,0.092l-0.094,0.09l-0.094,0.091l-0.094,0.091l-0.094,0.091l-0.093,0.091l-0.094,0.093l-0.095,0.094l-0.093,0.093l-0.092,0.092l-0.095,0.096l-0.09,0.092l-0.091,0.093l-0.095,0.097l-0.088,0.091l-0.091,0.094l-0.094,0.099l-0.091,0.096l-0.087,0.092l-0.09,0.096l-0.09,0.096l-0.09,0.097l-0.093,0.101l-0.086,0.093l-0.089,0.097l-0.089,0.099l-0.085,0.095l-0.092,0.102l-0.085,0.096l-0.087,0.098l-0.088,0.1l-0.084,0.097l-0.09,0.103l-0.084,0.097l-0.084,0.097l-0.089,0.105l-0.083,0.098l-0.083,0.098l-0.088,0.106l-0.083,0.099l-0.082,0.099l-0.088,0.107l-0.081,0.099l-0.081,0.1l-0.085,0.104l-0.08,0.101l-0.084,0.105l-0.083,0.105l-0.08,0.101l-0.08,0.102l-0.083,0.106l-0.079,0.103l-0.079,0.102l-0.082,0.107l-0.081,0.108l-0.078,0.103l-0.078,0.104l-0.081,0.108l-0.077,0.104l-0.078,0.106l-0.077,0.105l-0.076,0.105l-0.08,0.11l-0.076,0.106l-0.076,0.106l-0.076,0.107l-0.075,0.107l-0.077,0.111l-0.075,0.108l-0.075,0.108l-0.074,0.107l-0.074,0.109l-0.074,0.109l-0.076,0.112l-0.073,0.11l-0.071,0.106l-0.072,0.11l-0.072,0.109l-0.072,0.111l-0.072,0.111l-0.075,0.116l-0.071,0.111l-0.068,0.107l-0.068,0.108l-0.07,0.111l-0.073,0.118l-0.069,0.113l-0.067,0.108l-0.069,0.113l-0.069,0.114l-0.069,0.114l-0.068,0.114l-0.066,0.111l-0.067,0.115l-0.065,0.11l-0.067,0.115l-0.067,0.116l-0.064,0.112l-0.066,0.116l-0.066,0.117l-0.065,0.116l-0.063,0.114l-0.063,0.113l-0.064,0.117l-0.065,0.118l-0.064,0.118l-0.061,0.114l-0.061,0.114l-0.061,0.115l-0.063,0.12l-0.062,0.119l-0.06,0.115l-0.059,0.116l-0.062,0.121l-0.059,0.116l-0.058,0.116l-0.061,0.122l-0.058,0.117l-0.06,0.122l-0.057,0.117l-0.057,0.118l-0.057,0.118l-0.056,0.118l-0.059,0.124l-0.055,0.119l-0.056,0.119l-0.055,0.119l-0.055,0.12l-0.056,0.124l-0.055,0.121l-0.054,0.121l-0.053,0.12l-0.051,0.116l-0.055,0.126l-0.053,0.122l-0.052,0.122l-0.052,0.122l-0.051,0.122l-0.052,0.123l-0.05,0.122l-0.051,0.124l-0.048,0.118l-0.052,0.129l-0.05,0.123l-0.047,0.12l-0.049,0.124l-0.048,0.125l-0.048,0.125l-0.048,0.125l-0.048,0.126l-0.045,0.12l-0.047,0.126l-0.047,0.127l-0.044,0.121l-0.046,0.127l-0.045,0.127l-0.045,0.127l-0.043,0.122l-0.045,0.129l-0.042,0.123l-0.044,0.128l-0.043,0.129l-0.041,0.123l-0.043,0.13l-0.04,0.124l-0.042,0.129l-0.04,0.125l-0.04,0.125l-0.041,0.131l-0.04,0.13l-0.04,0.131l-0.037,0.121l-0.037,0.126l-0.041,0.138l-0.037,0.126l-0.037,0.127l-0.036,0.127l-0.036,0.128l-0.037,0.133l-0.037,0.133l-0.035,0.128l-0.033,0.124l-0.036,0.134l-0.034,0.128l-0.033,0.13l-0.035,0.135l-0.033,0.129l-0.032,0.13l-0.032,0.13l-0.032,0.131l-0.031,0.131l-0.031,0.131l-0.03,0.131l-0.032,0.137l-0.03,0.131l-0.028,0.127l-0.029,0.132l-0.03,0.138l-0.028,0.133l-0.027,0.127l-0.027,0.133l-0.027,0.134l-0.027,0.134l-0.026,0.133l-0.026,0.135l-0.026,0.134l-0.024,0.129l-0.025,0.135l-0.024,0.135l-0.024,0.136l-0.024,0.136l-0.022,0.13l-0.023,0.136l-0.022,0.136l-0.022,0.137l-0.021,0.131l-0.021,0.138l-0.021,0.137l-0.02,0.132l-0.02,0.138l-0.018,0.133l-0.019,0.132l-0.019,0.145l-0.019,0.139l-0.016,0.127l-0.018,0.14l-0.017,0.139l-0.016,0.135l-0.015,0.134l-0.016,0.141l-0.016,0.14l-0.013,0.13l-0.015,0.141l-0.014,0.141l-0.013,0.136l-0.013,0.136l-0.012,0.137l-0.013,0.142l-0.012,0.143l-0.011,0.137l-0.01,0.132l-0.011,0.143l-0.01,0.144l-0.009,0.132l-0.009,0.138l-0.009,0.145l-0.008,0.139l-0.008,0.139l-0.007,0.139l-0.007,0.14l-0.007,0.145l-0.006,0.14l-0.005,0.135l-0.005,0.146l-0.005,0.141l-0.004,0.136l-0.004,0.147l-0.004,0.141l-0.002,0.136l-0.003,0.142l-0.002,0.148l-0.002,0.143l-0.001,0.137l0,0.143l-0.001,0.143l0.001,0.144l0,0.143l0.001,0.137l0.002,0.142l0.002,0.148l0.003,0.142l0.002,0.136l0.004,0.142l0.004,0.147l0.004,0.135l0.005,0.141l0.005,0.147l0.005,0.134l0.006,0.14l0.007,0.146l0.007,0.139l0.007,0.14l0.008,0.139l0.008,0.139l0.009,0.144l0.009,0.139l0.009,0.132l0.01,0.144l0.011,0.143l0.01,0.132l0.011,0.137l0.012,0.142l0.013,0.143l0.012,0.136l0.013,0.136l0.013,0.136l0.014,0.142l0.015,0.141l0.013,0.129l0.016,0.141l0.016,0.14l0.015,0.135l0.016,0.134l0.017,0.14l0.018,0.139l0.016,0.128l0.019,0.139l0.019,0.144l0.019,0.133l0.018,0.133l0.02,0.138l0.02,0.131l0.021,0.138l0.021,0.137l0.021,0.131l0.022,0.137l0.022,0.137l0.023,0.136l0.022,0.13l0.024,0.136l0.024,0.135l0.024,0.135l0.025,0.135l0.024,0.129l0.026,0.135l0.026,0.134l0.026,0.134l0.027,0.134l0.027,0.133l0.027,0.133l0.027,0.128l0.028,0.133l0.03,0.137l0.029,0.132l0.028,0.127l0.03,0.132l0.032,0.137l0.03,0.131l0.031,0.131l0.031,0.13l0.032,0.131l0.032,0.13l0.032,0.13l0.033,0.13l0.035,0.135l0.033,0.129l0.034,0.128l0.036,0.135l0.033,0.123l0.035,0.128l0.037,0.134l0.037,0.132l0.036,0.129l0.036,0.127l0.037,0.126l0.037,0.127l0.041,0.137l0.037,0.127l0.037,0.12l0.04,0.131l0.041,0.131l0.04,0.13l0.04,0.125l0.04,0.125l0.042,0.13l0.04,0.124l0.043,0.129l0.041,0.124l0.044,0.129l0.043,0.128l0.042,0.123l0.045,0.128l0.043,0.122l0.045,0.128l0.045,0.126l0.046,0.127l0.044,0.121l0.047,0.128l0.047,0.126l0.045,0.119l0.047,0.126l0.048,0.125l0.049,0.125l0.049,0.126l0.048,0.124l0.047,0.118l0.05,0.125l0.052,0.129l0.048,0.118l0.05,0.122l0.051,0.124l0.052,0.123l0.052,0.122l0.051,0.122l0.052,0.121l0.053,0.122l0.055,0.127l0.051,0.116l0.053,0.12l0.055,0.121l0.054,0.12l0.056,0.125l0.055,0.119l0.055,0.119l0.056,0.12l0.055,0.119l0.059,0.123l0.056,0.119l0.057,0.118l0.057,0.117l0.057,0.117l0.06,0.123l0.058,0.117l0.061,0.122l0.059,0.116l0.058,0.116l0.062,0.12l0.059,0.116l0.06,0.115l0.062,0.12l0.063,0.12l0.061,0.114l0.061,0.114l0.062,0.115l0.063,0.118l0.064,0.117l0.066,0.119l0.062,0.112l0.062,0.112l0.066,0.118l0.067,0.117l0.066,0.116l0.063,0.11l0.067,0.117l0.067,0.115l0.065,0.111l0.068,0.116l0.065,0.108l0.068,0.115l0.069,0.115l0.069,0.114l0.069,0.112l0.067,0.109l0.069,0.113l0.073,0.117l0.071,0.113l0.067,0.106l0.068,0.108l0.072,0.112l0.074,0.114l0.072,0.111l0.072,0.111l0.072,0.11l0.073,0.11l0.069,0.105l0.073,0.109l0.078,0.115l0.073,0.108l0.074,0.108l0.074,0.108l0.074,0.107l0.076,0.109l0.077,0.111l0.075,0.106l0.077,0.108l0.076,0.106l0.075,0.105l0.08,0.111l0.077,0.105l0.075,0.104l0.078,0.105l0.078,0.106l0.081,0.108l0.077,0.103l0.079,0.104l0.081,0.108l0.082,0.107l0.079,0.101l0.079,0.103l0.083,0.107l0.079,0.101l0.081,0.102l0.084,0.106l0.083,0.103l0.08,0.1l0.085,0.105l0.082,0.101l0.081,0.099l0.087,0.107l0.082,0.098l0.082,0.099l0.089,0.106l0.084,0.1l0.083,0.097l0.088,0.103l0.083,0.097l0.085,0.099l0.09,0.104l0.084,0.096l0.088,0.099l0.088,0.1l0.085,0.095l0.09,0.101l0.086,0.095l0.09,0.1l0.088,0.096l0.085,0.093l0.095,0.102l0.09,0.098l0.089,0.095l0.089,0.095l0.088,0.093l0.091,0.096l0.093,0.097l0.091,0.094l0.089,0.092l0.095,0.099l0.092,0.093l0.088,0.089l0.095,0.096l0.093,0.094l0.093,0.092l0.095,0.095l0.095,0.093l0.093,0.091l0.093,0.091l0.094,0.091l0.094,0.09l0.094,0.09l0.098,0.093l0.096,0.091l0.095,0.089l0.097,0.091l0.096,0.088l0.094,0.087l0.099,0.091l0.1,0.091l0.095,0.086l0.097,0.087l0.097,0.088l0.1,0.089l0.099,0.088l0.099,0.086l0.101,0.089l0.095,0.082l0.099,0.086l0.102,0.087l0.099,0.085l0.103,0.087l0.1,0.084l0.098,0.083l0.102,0.084l0.102,0.085l0.104,0.085l0.102,0.084l0.098,0.08l0.1,0.081l0.105,0.084l0.107,0.085l0.101,0.08l0.101,0.08l0.107,0.084l0.105,0.081l0.099,0.078l0.106,0.08l0.105,0.081l0.106,0.08l0.103,0.079l0.107,0.079l0.106,0.08l0.102,0.075l0.109,0.081l0.108,0.078l0.102,0.075l0.109,0.078l0.107,0.078l0.109,0.077l0.106,0.075l0.107,0.076l0.107,0.074l0.107,0.075l0.109,0.076l0.108,0.074l0.113,0.077l0.108,0.073l0.106,0.072l0.114,0.076l0.109,0.072l0.104,0.069l0.114,0.075l0.113,0.073l0.107,0.07l0.111,0.071l0.11,0.07l0.113,0.072l0.111,0.07l0.111,0.07l0.112,0.07l0.115,0.07l0.112,0.069l0.11,0.067l0.115,0.07l0.11,0.066l0.113,0.068l0.116,0.069l0.114,0.067l0.113,0.066l0.115,0.067l0.112,0.064l0.114,0.066l0.118,0.067l0.115,0.065l0.113,0.063l0.113,0.063l0.116,0.065l0.119,0.065l0.113,0.062l0.117,0.063l0.119,0.064l0.115,0.061l0.115,0.061l0.117,0.062l0.118,0.062l0.116,0.06l0.118,0.06l0.119,0.061l0.118,0.06l0.117,0.059l0.119,0.059l0.117,0.058l0.12,0.059l0.12,0.059l0.118,0.057l0.118,0.056l0.118,0.057l0.123,0.058l0.119,0.056l0.119,0.055l0.122,0.056l0.121,0.056l0.12,0.054l0.12,0.054l0.12,0.054l0.123,0.054l0.12,0.053l0.121,0.053l0.123,0.053l0.122,0.052l0.121,0.052l0.124,0.052l0.122,0.051l0.119,0.05l0.125,0.051l0.125,0.051l0.123,0.049l0.121,0.049l0.125,0.049l0.126,0.05l0.119,0.046l0.124,0.048l0.126,0.048l0.125,0.047l0.126,0.048l0.125,0.046l0.122,0.045l0.126,0.046l0.128,0.046l0.123,0.044l0.126,0.045l0.125,0.044l0.124,0.043l0.129,0.044l0.127,0.043l0.126,0.043l0.128,0.042l0.125,0.042l0.125,0.04l0.129,0.042l0.13,0.042l0.125,0.039l0.125,0.04l0.131,0.04l0.126,0.039l0.129,0.039l0.129,0.038l0.127,0.038l0.13,0.038l0.129,0.037l0.13,0.038l0.129,0.036l0.129,0.036l0.128,0.035l0.13,0.036l0.131,0.035l0.13,0.035l0.129,0.033l0.127,0.033l0.134,0.035l0.132,0.033l0.13,0.032l0.131,0.033l0.129,0.031l0.131,0.031l0.135,0.032l0.131,0.03l0.128,0.03l0.134,0.03l0.133,0.03l0.132,0.029l0.132,0.028l0.134,0.029l0.132,0.028l0.13,0.027l0.133,0.027l0.135,0.026l0.133,0.027l0.134,0.026l0.133,0.025l0.134,0.025l0.135,0.025l0.132,0.024l0.135,0.023l0.134,0.024l0.136,0.023l0.135,0.023l0.131,0.021l0.138,0.022l0.137,0.022l0.131,0.02l0.137,0.021l0.138,0.02l0.132,0.02l0.135,0.019l0.139,0.019l0.136,0.018l0.135,0.018l0.137,0.018l0.137,0.017l0.14,0.017l0.134,0.016l0.137,0.016l0.137,0.016l0.135,0.014l0.141,0.015l0.139,0.015l0.135,0.013l0.139,0.014l0.139,0.013l0.136,0.012l0.137,0.012l0.14,0.012l0.14,0.011l0.14,0.011l0.138,0.01l0.138,0.01l0.141,0.01l0.141,0.009l0.139,0.009l0.136,0.008l0.141,0.007l0.143,0.008l0.14,0.007l0.139,0.006l0.14,0.006l0.141,0.006l0.14,0.005l0.141,0.005l0.141,0.004l0.144,0.004l0.142,0.003l0.139,0.003l0.142,0.002l0.142,0.002l0.143,0.002l0.14,0.001l0.143,0.001l0.143,0l0.143,0l0.143,-0.001l0.14,-0.001l0.143,-0.002l0.142,-0.002l0.142,-0.002l0.139,-0.003l0.142,-0.003l0.144,-0.004l0.141,-0.004l0.141,-0.005l0.141,-0.005l0.14,-0.006l0.14,-0.006l0.14,-0.006l0.139,-0.007l0.143,-0.008l0.142,-0.007l0.136,-0.008l0.138,-0.009l0.142,-0.009l0.141,-0.01l0.138,-0.01l0.137,-0.01l0.14,-0.011l0.141,-0.011l0.139,-0.012l0.137,-0.012l0.136,-0.012l0.14,-0.013l0.138,-0.014l0.136,-0.013l0.138,-0.015l0.141,-0.015l0.135,-0.014l0.138,-0.016l0.137,-0.016l0.134,-0.016l0.14,-0.017l0.136,-0.017l0.136,-0.018l0.136,-0.018l0.137,-0.018l0.137,-0.019l0.137,-0.02l0.132,-0.019l0.137,-0.02l0.138,-0.021l0.131,-0.02l0.138,-0.022l0.136,-0.022l0.13,-0.021l0.137,-0.023l0.136,-0.023l0.133,-0.023l0.135,-0.024l0.132,-0.024l0.136,-0.025l0.134,-0.025l0.131,-0.025l0.135,-0.026l0.134,-0.027l0.133,-0.026l0.134,-0.027l0.13,-0.027l0.134,-0.028l0.132,-0.029l0.132,-0.028l0.134,-0.029l0.131,-0.03l0.134,-0.03l0.129,-0.03l0.131,-0.03l0.133,-0.032l0.132,-0.031l0.13,-0.032l0.129,-0.031l0.131,-0.033l0.134,-0.034l0.13,-0.033l0.13,-0.034l0.13,-0.034l0.127,-0.034l0.131,-0.035l0.133,-0.036l0.126,-0.035l0.128,-0.036l0.131,-0.037l0.129,-0.037l0.13,-0.037l0.131,-0.039l0.125,-0.037l0.127,-0.038l0.131,-0.039l0.129,-0.04l0.126,-0.039l0.126,-0.039l0.128,-0.041l0.13,-0.041l0.128,-0.042l0.122,-0.04l0.126,-0.041l0.131,-0.044l0.127,-0.042l0.124,-0.043l0.127,-0.044l0.126,-0.043l0.126,-0.044l0.123,-0.044l0.126,-0.045l0.127,-0.046l0.128,-0.047l0.123,-0.045l0.122,-0.045l0.127,-0.048l0.124,-0.047l0.125,-0.048l0.123,-0.047l0.123,-0.048l0.124,-0.049l0.123,-0.049l0.126,-0.05l0.12,-0.048l0.123,-0.05l0.127,-0.052l0.122,-0.051l0.122,-0.051l0.119,-0.05l0.124,-0.053l0.123,-0.053l0.119,-0.051l0.121,-0.053l0.123,-0.054l0.122,-0.054l0.12,-0.054l0.123,-0.055l0.119,-0.054l0.117,-0.054l0.124,-0.057l0.119,-0.055l0.119,-0.056l0.123,-0.058l0.118,-0.057l0.119,-0.056l0.117,-0.057l0.12,-0.059l0.117,-0.058l0.12,-0.059l0.119,-0.059l0.119,-0.06l0.119,-0.06l0.114,-0.058l0.118,-0.061l0.121,-0.063l0.115,-0.06l0.117,-0.062l0.115,-0.061l0.115,-0.061l0.119,-0.064l0.117,-0.063l0.116,-0.064l0.114,-0.062l0.116,-0.064l0.116,-0.065l0.115,-0.064l0.113,-0.064l0.114,-0.065l0.12,-0.069l0.11,-0.063l0.111,-0.065l0.117,-0.068l0.116,-0.069l0.116,-0.069l0.11,-0.066l0.111,-0.066l0.112,-0.068l0.113,-0.069l0.114,-0.07l0.112,-0.069l0.109,-0.068l0.114,-0.072l0.111,-0.07l0.111,-0.07l0.113,-0.072l0.113,-0.073l0.107,-0.07l0.107,-0.069l0.115,-0.075l0.109,-0.073l0.109,-0.072l0.111,-0.074l0.106,-0.072l0.109,-0.073l0.11,-0.075l0.11,-0.076l0.11,-0.076l0.107,-0.075l0.107,-0.074l0.106,-0.076l0.107,-0.075l0.108,-0.077l0.111,-0.08l0.102,-0.074l0.106,-0.077l0.11,-0.08l0.104,-0.077l0.104,-0.077l0.107,-0.08l0.106,-0.079l0.107,-0.081l0.102,-0.078l0.103,-0.078l0.108,-0.083l0.103,-0.08l0.101,-0.079l0.105,-0.082l0.104,-0.082l0.103,-0.082l0.104,-0.083l0.102,-0.082l0.103,-0.083l0.101,-0.082l0.1,-0.082l0.104,-0.085l0.102,-0.085l0.098,-0.082l0.102,-0.085l0.103,-0.087l0.099,-0.084l0.099,-0.085l0.099,-0.085l0.102,-0.088l0.098,-0.085l0.096,-0.083l0.101,-0.089l0.099,-0.088l0.097,-0.087l0.101,-0.09l0.1,-0.09l0.095,-0.086l0.096,-0.088l0.096,-0.088l0.095,-0.087l0.098,-0.091l0.1,-0.094l0.095,-0.089l0.093,-0.088l0.095,-0.09l0.094,-0.09l0.097,-0.093l0.094,-0.091l0.093,-0.091l0.097,-0.094l0.094,-0.093l0.093,-0.092l0.092,-0.092l0.093,-0.094l0.092,-0.092l0.092,-0.093l0.091,-0.093l0.092,-0.095l0.096,-0.099l0.09,-0.094l0.087,-0.091l0.091,-0.096l0.094,-0.099l0.09,-0.095l0.086,-0.092l0.09,-0.098l0.091,-0.099l0.088,-0.096l0.088,-0.096l0.091,-0.1l0.088,-0.098l0.084,-0.094l0.088,-0.099l0.088,-0.1l0.088,-0.099l0.087,-0.1l0.084,-0.097l0.088,-0.102l0.087,-0.1l0.081,-0.096l0.086,-0.101l0.087,-0.103l0.084,-0.1l0.085,-0.102l0.084,-0.102l0.082,-0.099l0.084,-0.103l0.085,-0.104l0.082,-0.102l0.08,-0.1l0.083,-0.103l0.081,-0.102l0.083,-0.106l0.082,-0.105l0.077,-0.099l0.083,-0.107l0.081,-0.105l0.079,-0.103l0.079,-0.104l0.081,-0.108l0.077,-0.103l0.078,-0.104l0.082,-0.11l0.077,-0.105l0.076,-0.104l0.079,-0.109l0.078,-0.107l0.075,-0.105l0.075,-0.106l0.077,-0.108l0.078,-0.11l0.075,-0.107l0.075,-0.109l0.075,-0.107l0.073,-0.108l0.074,-0.108l0.073,-0.108l0.075,-0.111l0.073,-0.109l0.072,-0.109l0.076,-0.115l0.072,-0.109l0.07,-0.107l0.072,-0.111l0.071,-0.11l0.071,-0.112l0.071,-0.112l0.07,-0.111l0.071,-0.112l0.07,-0.113l0.067,-0.109l0.07,-0.113l0.068,-0.112l0.069,-0.114l0.069,-0.115l0.066,-0.11l0.067,-0.113l0.069,-0.116l0.067,-0.115l0.064,-0.111l0.068,-0.117l0.065,-0.114l0.064,-0.112l0.066,-0.117l0.064,-0.113l0.065,-0.117l0.064,-0.117l0.063,-0.114l0.064,-0.117l0.061,-0.113l0.062,-0.115l0.064,-0.119l0.062,-0.119l0.061,-0.115l0.063,-0.12l0.059,-0.115l0.06,-0.116l0.061,-0.12l0.059,-0.116l0.061,-0.121l0.058,-0.117l0.058,-0.117l0.058,-0.118l0.057,-0.117l0.059,-0.122l0.059,-0.123l0.057,-0.119l0.054,-0.113l0.057,-0.124l0.056,-0.12l0.055,-0.119l0.057,-0.124l0.052,-0.115l0.057,-0.125l0.054,-0.121l0.051,-0.115l0.055,-0.126l0.053,-0.122l0.053,-0.122l0.052,-0.121l0.052,-0.122l0.051,-0.122l0.052,-0.123l0.051,-0.124l0.05,-0.122l0.05,-0.123l0.05,-0.124l0.05,-0.125l0.047,-0.118l0.049,-0.124l0.049,-0.126l0.048,-0.125l0.048,-0.125l0.045,-0.12l0.047,-0.125l0.047,-0.126l0.047,-0.128l0.046,-0.126l0.044,-0.122l0.044,-0.121l0.045,-0.127l0.046,-0.133l0.043,-0.123l0.042,-0.123l0.044,-0.128l0.043,-0.129l0.041,-0.124l0.041,-0.124l0.044,-0.135l0.04,-0.124l0.04,-0.125l0.042,-0.13l0.039,-0.125l0.039,-0.126l0.04,-0.131l0.04,-0.131l0.037,-0.126l0.038,-0.127l0.039,-0.132l0.036,-0.126l0.036,-0.127l0.038,-0.134l0.036,-0.127l0.035,-0.128l0.035,-0.128l0.036,-0.134l0.034,-0.13l0.034,-0.128l0.035,-0.134l0.033,-0.13l0.032,-0.124l0.032,-0.13l0.033,-0.136l0.033,-0.136l0.032,-0.131l0.029,-0.125l0.031,-0.131l0.03,-0.131l0.03,-0.133l0.03,-0.137l0.029,-0.132l0.028,-0.127l0.028,-0.133l0.028,-0.133l0.029,-0.138l0.027,-0.134l0.025,-0.128l0.027,-0.134l0.025,-0.128l0.025,-0.135l0.026,-0.14l0.025,-0.135l0.024,-0.13l0.023,-0.13l0.024,-0.141l0.023,-0.136l0.022,-0.13l0.023,-0.137l0.021,-0.131l0.021,-0.137l0.022,-0.137l0.019,-0.132l0.021,-0.137l0.02,-0.138l0.019,-0.139l0.019,-0.133l0.018,-0.132l0.018,-0.139l0.018,-0.139l0.017,-0.134l0.016,-0.134l0.017,-0.14l0.016,-0.14l0.015,-0.135l0.015,-0.135l0.015,-0.141l0.014,-0.135l0.014,-0.142l0.014,-0.136l0.012,-0.136l0.013,-0.142l0.012,-0.137l0.012,-0.137l0.011,-0.137l0.011,-0.143l0.01,-0.137l0.01,-0.138l0.01,-0.144l0.009,-0.139l0.008,-0.132l0.009,-0.145l0.008,-0.145l0.007,-0.134l0.006,-0.139l0.007,-0.14l0.006,-0.14l0.006,-0.146l0.005,-0.141l0.005,-0.141l0.004,-0.141l0.003,-0.135l0.004,-0.142l0.003,-0.147l0.002,-0.142l0.002,-0.137l0.002,-0.143l0.001,-0.148l0.001,-0.137l0,-0.144l0,-0.143l-0.001,-0.137l-0.001,-0.149l-0.002,-0.142l-0.002,-0.137l-0.002,-0.142l-0.003,-0.148l-0.004,-0.141l-0.003,-0.136l-0.004,-0.141l-0.005,-0.141l-0.005,-0.14l-0.006,-0.146l-0.006,-0.14l-0.007,-0.14l-0.006,-0.14l-0.007,-0.133l-0.008,-0.145l-0.009,-0.145l-0.008,-0.133l-0.009,-0.138l-0.01,-0.144l-0.01,-0.138l-0.01,-0.138l-0.011,-0.143l-0.011,-0.137l-0.012,-0.137l-0.012,-0.136l-0.013,-0.143l-0.012,-0.136l-0.014,-0.136l-0.014,-0.141l-0.014,-0.136l-0.015,-0.141l-0.015,-0.134l-0.015,-0.135l-0.016,-0.14l-0.017,-0.14l-0.016,-0.134l-0.017,-0.134l-0.018,-0.139l-0.018,-0.139l-0.018,-0.133l-0.019,-0.133l-0.019,-0.138l-0.02,-0.138l-0.021,-0.138l-0.019,-0.131l-0.022,-0.138l-0.021,-0.136l-0.021,-0.132l-0.023,-0.136l-0.022,-0.13l-0.023,-0.136l-0.024,-0.142l-0.023,-0.13l-0.024,-0.129l-0.025,-0.135l-0.026,-0.141l-0.025,-0.134l-0.025,-0.129l-0.027,-0.133l-0.025,-0.129l-0.027,-0.133l-0.029,-0.139l-0.028,-0.133l-0.028,-0.132l-0.028,-0.127l-0.029,-0.132l-0.03,-0.138l-0.03,-0.132l-0.03,-0.131l-0.031,-0.131l-0.029,-0.126l-0.032,-0.131l-0.033,-0.136l-0.033,-0.135l-0.032,-0.13l-0.032,-0.124l-0.033,-0.13l-0.035,-0.135l-0.034,-0.128l-0.034,-0.129l-0.036,-0.134l-0.035,-0.128l-0.035,-0.128l-0.036,-0.128l-0.037,-0.133l-0.037,-0.127l-0.037,-0.127l-0.038,-0.132l-0.038,-0.126l-0.037,-0.126l-0.04,-0.132l-0.04,-0.131l-0.039,-0.125l-0.039,-0.125l-0.042,-0.131l-0.039,-0.125l-0.041,-0.124l-0.044,-0.135l-0.041,-0.124l-0.041,-0.123l-0.043,-0.129l-0.044,-0.128l-0.042,-0.123l-0.043,-0.123l-0.046,-0.133l-0.045,-0.127l-0.044,-0.122l-0.044,-0.121l-0.046,-0.127l-0.047,-0.127l-0.047,-0.126l-0.047,-0.125l-0.045,-0.121l-0.048,-0.125l-0.048,-0.125l-0.049,-0.125l-0.049,-0.124l-0.047,-0.12l-0.05,-0.123l-0.049,-0.124l-0.051,-0.123l-0.05,-0.124l-0.051,-0.122l-0.051,-0.123l-0.052,-0.122l-0.052,-0.122l-0.052,-0.122l-0.053,-0.122l-0.053,-0.121l-0.055,-0.126l-0.051,-0.115l-0.054,-0.121l-0.057,-0.126l-0.052,-0.114l-0.057,-0.125l-0.055,-0.119l-0.055,-0.119l-0.058,-0.124l-0.054,-0.114l-0.057,-0.118l-0.059,-0.123l-0.059,-0.123l-0.057,-0.117l-0.058,-0.117l-0.058,-0.117l-0.058,-0.117l-0.061,-0.121l-0.059,-0.116l-0.061,-0.121l-0.06,-0.116l-0.06,-0.115l-0.062,-0.119l-0.061,-0.116l-0.063,-0.119l-0.063,-0.119l-0.061,-0.113l-0.062,-0.114l-0.064,-0.118l-0.062,-0.113l-0.065,-0.117l-0.066,-0.118l-0.063,-0.112l-0.066,-0.117l-0.063,-0.112l-0.067,-0.116l-0.067,-0.116l-0.064,-0.11l-0.067,-0.115l-0.068,-0.115l-0.068,-0.115l-0.066,-0.11l-0.069,-0.114l-0.069,-0.114l-0.069,-0.113l-0.069,-0.113l-0.067,-0.108l-0.07,-0.113l-0.07,-0.112l-0.071,-0.112l-0.071,-0.112l-0.071,-0.111l-0.072,-0.111l-0.072,-0.111l-0.069,-0.107l-0.072,-0.109l-0.075,-0.114l-0.073,-0.11l-0.074,-0.11l-0.073,-0.108l-0.073,-0.109l-0.075,-0.109l-0.073,-0.107l-0.075,-0.108l-0.075,-0.108l-0.075,-0.107l-0.078,-0.111l-0.076,-0.107l-0.076,-0.106l-0.076,-0.106l-0.077,-0.106l-0.079,-0.109l-0.077,-0.105l-0.078,-0.106l-0.08,-0.108l-0.077,-0.104l-0.079,-0.104l-0.08,-0.107l-0.079,-0.104l-0.079,-0.103l-0.081,-0.106l-0.083,-0.107l-0.077,-0.098l-0.083,-0.106l-0.082,-0.105l-0.081,-0.101l-0.083,-0.105l-0.081,-0.101l-0.081,-0.1l-0.085,-0.104l-0.084,-0.103l-0.082,-0.099l-0.085,-0.103l-0.086,-0.103l-0.082,-0.098l-0.085,-0.102l-0.087,-0.102l-0.083,-0.097l-0.087,-0.101l-0.087,-0.101l-0.083,-0.096l-0.088,-0.1l-0.088,-0.1l-0.087,-0.098l-0.088,-0.099l-0.085,-0.096l-0.089,-0.098l-0.089,-0.099l-0.089,-0.097l-0.089,-0.097l-0.089,-0.097l-0.091,-0.097l-0.086,-0.093l-0.09,-0.096l-0.094,-0.099l-0.09,-0.095l-0.089,-0.092l-0.09,-0.094l-0.095,-0.098l-0.091,-0.094l-0.092,-0.093l-0.093,-0.095l-0.092,-0.093l-0.092,-0.092l-0.092,-0.093l-0.093,-0.091l-0.094,-0.093l-0.096,-0.094l-0.093,-0.091l-0.095,-0.091l-0.097,-0.093l-0.094,-0.091l-0.095,-0.089l-0.094,-0.09l-0.095,-0.089l-0.098,-0.091l-0.099,-0.092l-0.095,-0.088l-0.097,-0.089l-0.094,-0.086l-0.097,-0.088l-0.1,-0.09l-0.099,-0.088l-0.097,-0.087l-0.101,-0.089l-0.099,-0.087l-0.095,-0.083l-0.101,-0.088l-0.101,-0.087l-0.098,-0.084l-0.101,-0.087l-0.099,-0.084l-0.101,-0.085l-0.102,-0.085l-0.099,-0.083l-0.103,-0.085l-0.103,-0.084l-0.099,-0.082l-0.103,-0.083l-0.104,-0.084l-0.1,-0.081l-0.103,-0.081l-0.104,-0.084l-0.104,-0.082l-0.104,-0.081l-0.101,-0.079l-0.105,-0.081l-0.107,-0.082l-0.103,-0.078l-0.102,-0.078l-0.108,-0.082l-0.105,-0.079l-0.106,-0.078l-0.106,-0.079l-0.103,-0.076l-0.109,-0.08l-0.107,-0.077l-0.103,-0.075l-0.11,-0.079l-0.107,-0.077l-0.108,-0.076l-0.106,-0.075l-0.108,-0.076l-0.107,-0.074l-0.108,-0.074l-0.112,-0.078l-0.108,-0.073l-0.108,-0.074l-0.109,-0.073l-0.109,-0.072l-0.108,-0.073l-0.112,-0.074l-0.114,-0.074l-0.105,-0.069l-0.11,-0.071l-0.113,-0.073l-0.112,-0.072l-0.111,-0.07l-0.111,-0.07l-0.113,-0.07l-0.11,-0.069l-0.112,-0.069l-0.114,-0.071l-0.114,-0.069l-0.11,-0.067l-0.112,-0.067l-0.113,-0.067l-0.114,-0.068l-0.114,-0.067l-0.115,-0.068l-0.113,-0.065l-0.113,-0.066l-0.119,-0.068l-0.112,-0.064l-0.113,-0.063l-0.115,-0.065l-0.117,-0.065l-0.117,-0.065l-0.113,-0.062l-0.116,-0.063l-0.118,-0.064l-0.117,-0.063l-0.114,-0.061l-0.118,-0.062l-0.116,-0.062l-0.115,-0.06l-0.121,-0.062l-0.117,-0.06l-0.116,-0.06l-0.119,-0.06l-0.118,-0.059l-0.118,-0.059l-0.122,-0.06l-0.116,-0.058l-0.119,-0.057l-0.118,-0.058l-0.12,-0.057l-0.119,-0.057l-0.119,-0.056l-0.12,-0.056l-0.121,-0.057l-0.121,-0.056l-0.117,-0.054l-0.121,-0.055l-0.124,-0.055l-0.12,-0.054l-0.12,-0.053l-0.124,-0.055l-0.121,-0.052l-0.119,-0.052l-0.123,-0.053l-0.124,-0.052l-0.119,-0.051l-0.122,-0.051l-0.125,-0.051l-0.123,-0.051l-0.123,-0.05l-0.123,-0.049l-0.124,-0.05l-0.122,-0.048l-0.123,-0.049l-0.126,-0.049l-0.124,-0.047l-0.124,-0.048l-0.123,-0.047l-0.126,-0.047l-0.123,-0.046l-0.124,-0.045l-0.127,-0.046l-0.125,-0.046l-0.128,-0.045l-0.123,-0.044l-0.126,-0.044l-0.128,-0.045l-0.125,-0.043l-0.124,-0.042l-0.127,-0.043l-0.129,-0.043l-0.126,-0.041l-0.126,-0.041l-0.127,-0.042l-0.128,-0.04l-0.128,-0.041l-0.128,-0.04l-0.127,-0.039l-0.127,-0.039l-0.131,-0.04l-0.127,-0.038l-0.126,-0.037l-0.13,-0.038l-0.13,-0.038l-0.129,-0.037l-0.129,-0.036l-0.129,-0.036l-0.129,-0.036l-0.131,-0.035l-0.13,-0.035l-0.128,-0.035l-0.132,-0.034l-0.13,-0.034l-0.128,-0.033l-0.133,-0.033l-0.131,-0.033l-0.13,-0.032l-0.131,-0.032l-0.131,-0.031l-0.132,-0.031l-0.132,-0.031l-0.131,-0.03l-0.132,-0.03l-0.13,-0.029l-0.133,-0.029l-0.134,-0.029l-0.132,-0.028l-0.132,-0.028l-0.133,-0.027l-0.134,-0.028l-0.132,-0.026l-0.134,-0.026l-0.133,-0.026l-0.134,-0.025l-0.133,-0.025l-0.134,-0.025l-0.136,-0.024l-0.132,-0.024l-0.134,-0.023l-0.136,-0.023l-0.135,-0.023l-0.134,-0.022l-0.134,-0.022l-0.136,-0.021l-0.135,-0.021l-0.136,-0.021l-0.136,-0.02l-0.135,-0.019l-0.136,-0.019l-0.136,-0.019l-0.137,-0.019l-0.136,-0.018l-0.137,-0.017l-0.135,-0.017l-0.137,-0.017l-0.139,-0.017l-0.135,-0.015l-0.136,-0.016l-0.14,-0.015l-0.138,-0.015l-0.135,-0.014l-0.139,-0.014l-0.138,-0.013l-0.139,-0.013l-0.139,-0.013l-0.137,-0.012l-0.137,-0.011l-0.141,-0.012l-0.139,-0.01l-0.138,-0.011l-0.14,-0.01l-0.138,-0.009l-0.141,-0.009l-0.14,-0.009l-0.139,-0.008l-0.139,-0.008l-0.141,-0.007l-0.141,-0.007l-0.139,-0.007l-0.141,-0.006l-0.142,-0.005l-0.139,-0.005l-0.141,-0.005l-0.142,-0.004l-0.142,-0.004l-0.14,-0.003l-0.142,-0.003l-0.142,-0.003l-0.142,-0.002l-0.143,-0.001l-0.141,-0.002l-0.142,0l-0.143,0l-0.143,0Z" style="fill:#945852;"/><path d="M152.394,149.36l-127.247,0c0,0 0,3.654 0,7.387c0,2.091 0.83,4.095 2.308,5.573c1.478,1.478 3.483,2.309 5.574,2.309c22.804,0 88.678,0 111.483,0c2.09,0 4.095,-0.831 5.573,-2.309c1.478,-1.478 2.309,-3.482 2.309,-5.573c0,-3.733 0,-7.387 0,-7.387Z" style="fill:#467caa;"/><path d="M152.394,164.331l-127.247,0c0,0 0,3.654 0,7.388c0,2.09 0.83,4.095 2.308,5.573c1.478,1.478 3.483,2.308 5.574,2.308c22.804,0 88.678,0 111.483,0c2.09,0 4.095,-0.83 5.573,-2.308c1.478,-1.478 2.309,-3.483 2.309,-5.573c0,-3.734 0,-7.388 0,-7.388Z" style="fill:#6fa387;"/><path d="M152.394,179.194l-127.247,0c0,0 0,3.655 0,7.388c0,2.09 0.83,4.095 2.308,5.573c1.478,1.478 3.483,2.309 5.574,2.309c22.804,0 88.678,0 111.483,0c2.09,0 4.095,-0.831 5.573,-2.309c1.478,-1.478 2.309,-3.483 2.309,-5.573c0,-3.733 0,-7.388 0,-7.388Z" style="fill:#467caa;"/><path d="M152.394,194.057l-127.247,0c0,0 0,3.655 0,7.388c0,2.09 0.83,4.095 2.308,5.573c1.478,1.478 3.483,2.309 5.574,2.309c22.804,0 88.678,0 111.483,0c2.09,0 4.095,-0.831 5.573,-2.309c1.478,-1.478 2.309,-3.483 2.309,-5.573c0,-3.733 0,-7.388 0,-7.388Z" style="fill:#6fa387;"/></g></svg>