<?xml version="1.0" encoding="UTF-8" standalone="no"?><!DOCTYPE svg PUBLIC "-//W3C//DTD SVG 1.1//EN" "http://www.w3.org/Graphics/SVG/1.1/DTD/svg11.dtd"><svg width="100%" height="100%" viewBox="0 0 240 246" version="1.1" xmlns="http://www.w3.org/2000/svg" xmlns:xlink="http://www.w3.org/1999/xlink" xml:space="preserve" xmlns:serif="http://www.serif.com/" style="fill-rule:evenodd;clip-rule:evenodd;stroke-linecap:round;stroke-linejoin:round;stroke-miterlimit:1.5;"><g id="Vacuum-cleaner" serif:id="Vacuum cleaner"><path d="M90.249,101.246l0.324,-47.408c3.084,-27.475 25.852,-48.838 53.442,-48.838c27.591,0 49.524,18.283 52.609,45.758" style="fill:none;stroke:#acb1b1;stroke-width:10px;"/><path d="M104.751,99.784c6.424,0 11.64,5.992 11.64,13.373l0,117.071c0,7.381 -5.216,13.373 -11.64,13.373l-93.112,0c-6.424,0 -11.639,-5.992 -11.639,-13.373l0,-64.834c12.529,-32.498 39.624,-57.296 72.85,-65.61l31.901,0Z" style="fill:#446aae;"/><clipPath id="_clip1"><path d="M104.751,99.784c6.424,0 11.64,5.992 11.64,13.373l0,117.071c0,7.381 -5.216,13.373 -11.64,13.373l-93.112,0c-6.424,0 -11.639,-5.992 -11.639,-13.373l0,-64.834c12.529,-32.498 39.624,-57.296 72.85,-65.61l31.901,0Z"/></clipPath><g clip-path="url(#_clip1)"><path d="M72.612,98.354l-75.829,0l0,67.609c0,0 59.254,-0.193 73.004,-0.238c1.562,-0.005 2.825,-1.272 2.825,-2.834c0,-12.778 0,-64.537 0,-64.537Z" style="fill:#8f9a9a;"/></g><path d="M239.163,232.682c0,-0.67 -0.544,-1.214 -1.213,-1.214l-82.087,0c-0.67,0 -1.213,0.544 -1.213,1.214l0,9.706c0,0.67 0.543,1.213 1.213,1.213l82.087,0c0.669,0 1.213,-0.543 1.213,-1.213l0,-9.706Z" style="fill:#5f5f5f;"/><path d="M196.906,213.039l36.587,18.777l-73.173,0l36.586,-18.777Z" style="fill:#6c6c6c;"/><circle cx="196.906" cy="213.912" r="8.55" style="fill:#6c6c6c;"/><path d="M202.738,51.895c0,-0.469 -0.38,-0.85 -0.85,-0.85c-2.155,0 -7.809,0 -9.963,0c-0.47,0 -0.851,0.381 -0.851,0.85c0,12.376 0,155.679 0,155.679l11.664,0c0,0 0,-143.303 0,-155.679Z" style="fill:#7b8080;"/><circle cx="98.322" cy="225.53" r="20.415" style="fill:#8f9a9a;"/></g></svg>