<?xml version="1.0" encoding="UTF-8" standalone="no"?><!DOCTYPE svg PUBLIC "-//W3C//DTD SVG 1.1//EN" "http://www.w3.org/Graphics/SVG/1.1/DTD/svg11.dtd"><svg width="100%" height="100%" viewBox="0 0 202 240" version="1.1" xmlns="http://www.w3.org/2000/svg" xmlns:xlink="http://www.w3.org/1999/xlink" xml:space="preserve" xmlns:serif="http://www.serif.com/" style="fill-rule:evenodd;clip-rule:evenodd;stroke-linecap:round;stroke-linejoin:round;stroke-miterlimit:1.5;"><g id="Washing-machine" serif:id="Washing machine"><path id="Machine" d="M201.536,10.077c0,-5.562 -4.516,-10.077 -10.077,-10.077l-181.382,0c-5.562,0 -10.077,4.515 -10.077,10.077l0,219.135c0,5.562 4.515,10.077 10.077,10.077l181.382,0c5.561,0 10.077,-4.515 10.077,-10.077l0,-219.135Z" style="fill:#eaeae8;"/><clipPath id="_clip1"><path d="M201.536,10.077c0,-5.562 -4.516,-10.077 -10.077,-10.077l-181.382,0c-5.562,0 -10.077,4.515 -10.077,10.077l0,219.135c0,5.562 4.515,10.077 10.077,10.077l181.382,0c5.561,0 10.077,-4.515 10.077,-10.077l0,-219.135Z"/></clipPath><g clip-path="url(#_clip1)"><rect id="Dashboard" x="-4.256" y="-6.639" width="209.964" height="54.506" style="fill:#696767;"/></g><path id="Water" d="M52.489,165.964c0,0 8.869,-23.222 27.923,-7.361c19.054,15.86 15.312,-4.525 23.799,-7.513c8.487,-2.988 16.898,11.675 22.655,12.543c5.756,0.868 15.95,-20.052 25.015,-2.446c9.065,17.606 -11.137,38.399 -11.13,38.49c0.007,0.091 -80.305,-1.662 -80.305,-1.662l-7.957,-32.051Z" style="fill:#00f4ff;"/><ellipse id="Hatch" cx="100.768" cy="145.084" rx="63.932" ry="61.937" style="fill:none;stroke:#8d8d8d;stroke-width:28px;"/><circle id="Button" cx="152.74" cy="22.183" r="9.956" style="fill:#f6f3f3;"/><circle id="Button1" serif:id="Button" cx="178.003" cy="22.183" r="9.956" style="fill:#f6f3f3;"/><rect id="Detergent-box" serif:id="Detergent box" x="13.579" y="32.94" width="42.678" height="14.943" style="fill:#f6f3f3;"/></g></svg>