<?xml version="1.0" encoding="UTF-8"?>
<svg width="22px" height="21px" viewBox="0 0 22 21" version="1.1" xmlns="http://www.w3.org/2000/svg" xmlns:xlink="http://www.w3.org/1999/xlink">
    <!-- Generator: Sketch 50.2 (55047) - http://www.bohemiancoding.com/sketch -->
    <title>Combined Shape</title>
    <desc>Created with Sketch.</desc>
    <defs></defs>
    <g id="Startup-Hack" stroke="none" stroke-width="1" fill="none" fill-rule="evenodd">
        <g id="iPhone-8---Profile" transform="translate(-27.000000, -619.000000)" fill="#C2C2C2">
            <g id="Group-4" transform="translate(0.000000, 587.000000)">
                <path d="M28.5,32 L47.5,32 C48.3284271,32 49,32.6715729 49,33.5 C49,34.3284271 48.3284271,35 47.5,35 L28.5,35 C27.6715729,35 27,34.3284271 27,33.5 C27,32.6715729 27.6715729,32 28.5,32 Z M28.5,38 L42.5,38 C43.3284271,38 44,38.6715729 44,39.5 C44,40.3284271 43.3284271,41 42.5,41 L28.5,41 C27.6715729,41 27,40.3284271 27,39.5 C27,38.6715729 27.6715729,38 28.5,38 Z M28.5,44 L39.5,44 C40.3284271,44 41,44.6715729 41,45.5 C41,46.3284271 40.3284271,47 39.5,47 L28.5,47 C27.6715729,47 27,46.3284271 27,45.5 C27,44.6715729 27.6715729,44 28.5,44 Z M28.5,50 L35.5,50 C36.3284271,50 37,50.6715729 37,51.5 C37,52.3284271 36.3284271,53 35.5,53 L28.5,53 C27.6715729,53 27,52.3284271 27,51.5 C27,50.6715729 27.6715729,50 28.5,50 Z" id="Combined-Shape"></path>
            </g>
        </g>
    </g>
</svg>